<?xml version="1.0" encoding="utf-8"?>
<!-- Generator: Adobe Illustrator 16.2.1, SVG Export Plug-In . SVG Version: 6.00 Build 0)  -->
<!DOCTYPE svg PUBLIC "-//W3C//DTD SVG 1.1//EN" "http://www.w3.org/Graphics/SVG/1.1/DTD/svg11.dtd">
<svg version="1.1" id="Layer_1" xmlns="http://www.w3.org/2000/svg" xmlns:xlink="http://www.w3.org/1999/xlink" x="0px" y="0px"
	 width="612px" height="792px" viewBox="0 0 612 792" enable-background="new 0 0 612 792" xml:space="preserve">
<g>
	<path fill="#FFFFFF" d="M552.774,92.468H59.226C24.677,92.468,0,117.145,0,151.693v493.549c0,29.612,24.677,59.226,59.226,59.226
		h271.452V467.564h-83.903v-93.774h78.968v-69.097c0-78.968,49.354-123.387,118.451-123.387c34.549,0,64.161,0,69.097,4.936v83.903
		h-49.354c-34.549,0-44.419,19.742-44.419,44.419v59.226h93.773l-9.871,88.838h-83.902v236.903h133.258
		c29.612,0,59.226-24.678,59.226-59.226V146.758C607.064,117.145,582.387,92.468,552.774,92.468z"/>
</g>
</svg>
