<?xml version="1.0" encoding="utf-8"?>
<!-- Generator: Adobe Illustrator 19.1.0, SVG Export Plug-In . SVG Version: 6.00 Build 0)  -->
<svg version="1.1" xmlns="http://www.w3.org/2000/svg" xmlns:xlink="http://www.w3.org/1999/xlink" x="0px" y="0px"
	 viewBox="0 0 216 216" style="enable-background:new 0 0 216 216;" xml:space="preserve">
<style type="text/css">
	.st0{opacity:0.48;fill:#FFFFFF;}
	.st1{opacity:0.46;fill:#FFFFFF;}
</style>
<g id="Layer_2">
</g>
<g id="Layer_1">
	<g>
		<path class="st0" d="M37.3,127.4l4.7,0c0,0-0.8-12.1,8-13.2S62.5,120,62,127l5.2,0c0,0,0.9-15.9-11.4-17.6s-16.6,4.8-18.1,11.4
			C36.1,127.4,37.3,127.4,37.3,127.4z"/>
		<path class="st0" d="M149.6,127.4h5.1c0,0-1.1-12.1,7.7-13.2s12.7,5.4,12.1,12.4h5.5c0,0,0-15.9-12.3-17.6s-16.2,5.1-17.7,11.7
			C148.5,127.4,149.6,127.4,149.6,127.4z"/>
		<path class="st1" d="M36.1,126.7h-7.4c0,0-4.7-0.2-4.8-6.1c-0.1-5.9,0-12.6,0-12.6s0.3-1.1,1.3-1.2c1-0.1,2.5,0,2.5,0
			s2.9,0.2,3-1.3c0.1-1.5-0.7-5.9-0.7-5.9s0-0.9,1.7-1.8c1.7-0.9,31.8-18.4,60.1-20s41,3.9,56.7,15.7c0,0,0.6,0.7,1.8,0.7
			c1.8,0.1,30.8-2.9,44.8,13l-1.1,1l0.2,13.7l0.9,2.3v2l-14.9-0.5c0,0,1.2-11.6-9.8-16.3c-7.9-3.4-15.4,0.2-18.4,4.5
			c-2.6,3.8-3,8.5-2.8,12.6l-82.2-0.4c0,0,1-7.9-4.4-13.5c-3.9-4-13.4-7.3-21.4,0.3c0,0-4.8,3.9-4.1,13.2l0.1,0.4H36.1z"/>
		<circle class="st1" cx="164.7" cy="123.3" r="10.1"/>
		<circle class="st1" cx="51.9" cy="123.3" r="10"/>
		<circle class="st1" cx="51.9" cy="123.3" r="4.6"/>
		<circle class="st1" cx="164.7" cy="123.3" r="4.5"/>
		<path class="st1" d="M90.2,83.6v12.2h51C141.2,95.8,127.4,80.4,90.2,83.6z"/>
		<path class="st1" d="M82.9,84.7v11.1H48.5C48.5,95.8,69.2,85.7,82.9,84.7z"/>
	</g>
</g>
</svg>
