<?xml version="1.0" encoding="utf-8"?>
<!-- Generator: Adobe Illustrator 16.2.1, SVG Export Plug-In . SVG Version: 6.00 Build 0)  -->
<!DOCTYPE svg PUBLIC "-//W3C//DTD SVG 1.1//EN" "http://www.w3.org/Graphics/SVG/1.1/DTD/svg11.dtd">
<svg version="1.1" id="Layer_1" xmlns="http://www.w3.org/2000/svg" xmlns:xlink="http://www.w3.org/1999/xlink" x="0px" y="0px"
	 width="612px" height="792px" viewBox="0 0 612 792" enable-background="new 0 0 612 792" xml:space="preserve">
<g id="Layer_1_1_">
	<path fill="none" stroke="#FFFFFF" stroke-width="4.2964" stroke-miterlimit="10" d="M271.887,1.25
		c-9.882,0-17.852,7.969-17.852,17.85c0,9.881,7.97,17.85,17.852,17.85c9.881,0,17.85-7.969,17.85-17.85
		C289.737,9.219,281.768,1.25,271.887,1.25L271.887,1.25z"/>
	<path fill="none" stroke="#FFFFFF" stroke-width="4.2964" stroke-miterlimit="10" d="M299.724,65.106
		c0-10.944-8.818-19.869-19.868-19.869h-15.831c-10.944,0-19.869,8.925-19.869,19.869v7.969h55.463v-7.969H299.724z"/>
	<path fill="none" stroke="#FFFFFF" stroke-width="2.8714" stroke-miterlimit="10" d="M196.237,144.794
		c0,0-9.881,28.794,4.994,55.888l5.418-3.188c0,0-12.856-20.294-4.781-50.363l8.5,3.506l-2.975-24.756l-19.869,14.875
		L196.237,144.794z"/>
	<path fill="none" stroke="#FFFFFF" stroke-width="2.8714" stroke-miterlimit="10" d="M347.644,180.706
		c0,0,9.881-28.794-4.994-55.888l-5.418,3.188c0,0,12.855,20.294,4.781,50.363l-8.5-3.506l2.975,24.756l19.869-14.875
		L347.644,180.706z"/>
	<path fill="none" stroke="#FFFFFF" stroke-width="2.8714" stroke-miterlimit="10" d="M196.237,343.906
		c0,0-9.881,28.794,4.994,55.887l5.418-3.188c0,0-12.856-20.293-4.781-50.362l8.5,3.506l-2.975-24.756l-19.869,14.875
		L196.237,343.906z"/>
	<path fill="none" stroke="#FFFFFF" stroke-width="2.8714" stroke-miterlimit="10" d="M347.644,379.819
		c0,0,9.881-28.794-4.994-55.888l-5.418,3.188c0,0,12.855,20.294,4.781,50.362l-8.5-3.506l2.975,24.755l19.869-14.875
		L347.644,379.819z"/>
	<g>
		<path fill="#FFFFFF" d="M222.162,97.3c-3.931,0-6.694-2.763-6.694-6.587l0,0c0-3.613,2.869-6.588,6.694-6.588
			c2.337,0,3.719,0.638,4.994,1.7l-1.806,2.125c-0.957-0.85-1.913-1.275-3.294-1.275c-2.019,0-3.719,1.806-3.719,3.931l0,0
			c0,2.337,1.594,4.038,3.825,4.038c1.062,0,1.913-0.212,2.656-0.744v-1.807h-2.869V89.65h5.525v5.525
			C226.306,96.343,224.5,97.3,222.162,97.3z"/>
		<path fill="#FFFFFF" d="M239.162,93.156h-6.8c0.319,1.275,1.169,1.913,2.444,1.913c0.957,0,1.594-0.319,2.337-0.956l1.594,1.381
			c-0.956,1.168-2.231,1.806-4.037,1.806c-2.975,0-5.1-2.019-5.1-5.1l0,0c0-2.763,2.019-5.1,4.887-5.1
			c3.294,0,4.781,2.55,4.781,5.312l0,0C239.162,92.731,239.162,92.837,239.162,93.156z M234.381,89.331
			c-1.169,0-1.913,0.85-2.125,2.125h4.144C236.293,90.181,235.549,89.331,234.381,89.331z"/>
		<path fill="#FFFFFF" d="M247.45,97.087v-5.419c0-1.275-0.638-2.019-1.7-2.019s-1.7,0.637-1.7,2.019v5.419h-2.762v-9.775h2.762
			v1.381c0.638-0.85,1.488-1.594,2.869-1.594c2.125,0,3.293,1.381,3.293,3.613v6.375H247.45z"/>
		<path fill="#FFFFFF" d="M261.687,93.156h-6.8c0.317,1.275,1.169,1.913,2.442,1.913c0.956,0,1.595-0.319,2.339-0.956l1.594,1.381
			c-0.956,1.168-2.231,1.806-4.038,1.806c-2.975,0-5.1-2.019-5.1-5.1l0,0c0-2.763,2.019-5.1,4.888-5.1
			c3.294,0,4.781,2.55,4.781,5.312l0,0C261.687,92.731,261.687,92.837,261.687,93.156z M257.012,89.331
			c-1.169,0-1.913,0.85-2.125,2.125h4.144C258.818,90.181,258.181,89.331,257.012,89.331z"/>
		<path fill="#FFFFFF" d="M269.549,89.968c-1.807,0-2.976,1.062-2.976,3.4v3.612h-2.763v-9.775h2.763v2.019
			c0.531-1.381,1.487-2.231,3.081-2.125v2.869H269.549z"/>
		<path fill="#FFFFFF" d="M276.668,97.087v-1.062c-0.639,0.744-1.595,1.275-2.977,1.275c-1.806,0-3.398-1.062-3.398-2.975l0,0
			c0-2.125,1.594-3.081,3.931-3.081c0.957,0,1.7,0.212,2.444,0.425v-0.213c0-1.169-0.744-1.806-2.125-1.806
			c-1.062,0-1.808,0.212-2.656,0.531l-0.744-2.125c1.062-0.425,2.125-0.744,3.825-0.744c3.081,0,4.355,1.594,4.355,4.25v5.631
			h-2.655V97.087z M276.775,93.156c-0.426-0.212-1.062-0.318-1.807-0.318c-1.169,0-1.912,0.425-1.912,1.381l0,0
			c0,0.744,0.637,1.169,1.487,1.169c1.273,0,2.125-0.744,2.125-1.7v-0.532H276.775z"/>
		<path fill="#FFFFFF" d="M284.956,97.193c-1.699,0-2.867-0.637-2.867-2.975v-4.675h-1.169v-2.337h1.169v-2.55h2.762v2.55h2.338
			v2.337h-2.338v4.144c0,0.638,0.319,0.957,0.851,0.957c0.532,0,0.956-0.106,1.381-0.319v2.231
			C286.656,96.981,285.912,97.193,284.956,97.193z"/>
		<path fill="#FFFFFF" d="M289.312,86.144V83.7h2.869v2.444H289.312z M289.418,97.087v-9.775h2.763v9.775H289.418z"/>
		<path fill="#FFFFFF" d="M299.619,97.3c-3.082,0-5.312-2.231-5.312-5.1l0,0c0-2.763,2.229-5.1,5.312-5.1
			c3.081,0,5.312,2.231,5.312,5.1l0,0C304.931,94.962,302.593,97.3,299.619,97.3z M302.168,92.2c0-1.487-1.062-2.656-2.551-2.656
			c-1.594,0-2.551,1.275-2.551,2.656l0,0c0,1.487,1.062,2.656,2.551,2.656C301.212,94.856,302.168,93.687,302.168,92.2L302.168,92.2
			z"/>
		<path fill="#FFFFFF" d="M313.111,97.087v-5.419c0-1.275-0.637-2.019-1.699-2.019s-1.699,0.637-1.699,2.019v5.419h-2.764v-9.775
			h2.764v1.381c0.637-0.85,1.486-1.594,2.867-1.594c2.126,0,3.294,1.381,3.294,3.613v6.375H313.111z"/>
		<path fill="#FFFFFF" d="M326.606,84.231h1.912v12.856h-2.764v-9.988l-2.23,0.531l-0.531-2.337L326.606,84.231z"/>
	</g>
	
		<line fill="none" stroke="#FFFFFF" stroke-width="1.8887" stroke-miterlimit="10" x1="216" y1="103.037" x2="329.05" y2="103.037"/>
	<path fill="none" stroke="#FFFFFF" stroke-width="4.2964" stroke-miterlimit="10" d="M271.887,199.725
		c-9.882,0-17.852,7.969-17.852,17.85c0,9.881,7.97,17.85,17.852,17.85c9.881,0,17.85-7.969,17.85-17.85
		C289.737,207.694,281.768,199.725,271.887,199.725L271.887,199.725z"/>
	<path fill="none" stroke="#FFFFFF" stroke-width="4.2964" stroke-miterlimit="10" d="M299.724,263.581
		c0-10.942-8.818-19.868-19.868-19.868h-15.831c-10.944,0-19.869,8.925-19.869,19.868v7.97h55.463v-7.97H299.724z"/>
	<g>
		<path fill="#FFFFFF" d="M221.1,295.775c-3.931,0-6.694-2.763-6.694-6.588l0,0c0-3.612,2.869-6.587,6.694-6.587
			c2.337,0,3.719,0.637,4.994,1.699l-1.806,2.125c-0.957-0.851-1.913-1.274-3.294-1.274c-2.019,0-3.719,1.806-3.719,3.931l0,0
			c0,2.339,1.594,4.038,3.825,4.038c1.062,0,1.913-0.213,2.656-0.744v-1.806h-2.869v-2.444h5.525v5.525
			C225.243,294.819,223.437,295.775,221.1,295.775z"/>
		<path fill="#FFFFFF" d="M238.1,291.631h-6.8c0.319,1.273,1.169,1.911,2.444,1.911c0.957,0,1.594-0.317,2.337-0.955l1.594,1.381
			c-0.956,1.169-2.231,1.807-4.037,1.807c-2.975,0-5.1-2.019-5.1-5.101l0,0c0-2.763,2.019-5.101,4.887-5.101
			c3.294,0,4.781,2.55,4.781,5.312l0,0C238.1,291.206,238.1,291.312,238.1,291.631z M233.318,287.806
			c-1.169,0-1.913,0.85-2.125,2.125h4.144C235.231,288.656,234.487,287.806,233.318,287.806z"/>
		<path fill="#FFFFFF" d="M246.387,295.562v-5.419c0-1.274-0.638-2.02-1.7-2.02s-1.7,0.639-1.7,2.02v5.419h-2.762v-9.774h2.762
			v1.382c0.638-0.851,1.488-1.595,2.869-1.595c2.125,0,3.293,1.381,3.293,3.612v6.375H246.387L246.387,295.562z"/>
		<path fill="#FFFFFF" d="M260.625,291.631h-6.801c0.318,1.273,1.169,1.911,2.443,1.911c0.956,0,1.594-0.317,2.338-0.955
			l1.594,1.381c-0.956,1.169-2.23,1.807-4.038,1.807c-2.975,0-5.1-2.019-5.1-5.101l0,0c0-2.763,2.019-5.101,4.888-5.101
			c3.294,0,4.781,2.55,4.781,5.312l0,0C260.625,291.206,260.625,291.312,260.625,291.631z M255.95,287.806
			c-1.169,0-1.913,0.85-2.125,2.125h4.145C257.755,288.656,257.119,287.806,255.95,287.806z"/>
		<path fill="#FFFFFF" d="M268.487,288.444c-1.806,0-2.975,1.062-2.975,3.399v3.611h-2.764v-9.773h2.764v2.019
			c0.531-1.381,1.486-2.23,3.081-2.125v2.869H268.487z"/>
		<path fill="#FFFFFF" d="M275.606,295.562V294.5c-0.638,0.744-1.594,1.275-2.976,1.275c-1.807,0-3.399-1.062-3.399-2.976l0,0
			c0-2.125,1.594-3.081,3.931-3.081c0.957,0,1.7,0.213,2.444,0.425v-0.212c0-1.169-0.744-1.808-2.125-1.808
			c-1.062,0-1.807,0.213-2.656,0.531l-0.744-2.125c1.062-0.425,2.125-0.743,3.825-0.743c3.081,0,4.356,1.595,4.356,4.25v5.631
			h-2.656V295.562z M275.712,291.525c-0.427-0.213-1.062-0.319-1.808-0.319c-1.169,0-1.912,0.427-1.912,1.383l0,0
			c0,0.742,0.638,1.169,1.487,1.169c1.274,0,2.125-0.744,2.125-1.7v-0.531L275.712,291.525L275.712,291.525z"/>
		<path fill="#FFFFFF" d="M283.893,295.668c-1.7,0-2.868-0.639-2.868-2.976v-4.676h-1.169v-2.337h1.169v-2.55h2.762v2.55h2.338
			v2.337h-2.338v4.145c0,0.638,0.319,0.956,0.852,0.956s0.956-0.105,1.381-0.318v2.23
			C285.593,295.456,284.849,295.668,283.893,295.668z"/>
		<path fill="#FFFFFF" d="M288.25,284.619v-2.443h2.869v2.443H288.25z M288.356,295.562v-9.774h2.763v9.774H288.356z"/>
		<path fill="#FFFFFF" d="M298.556,295.775c-3.082,0-5.312-2.23-5.312-5.101l0,0c0-2.763,2.23-5.101,5.312-5.101
			c3.081,0,5.312,2.231,5.312,5.101l0,0C303.869,293.437,301.531,295.775,298.556,295.775z M301.106,290.674
			c0-1.487-1.062-2.656-2.55-2.656c-1.594,0-2.551,1.274-2.551,2.656l0,0c0,1.487,1.062,2.655,2.551,2.655
			C300.15,293.331,301.106,292.163,301.106,290.674L301.106,290.674z"/>
		<path fill="#FFFFFF" d="M312.049,295.562v-5.419c0-1.274-0.639-2.02-1.699-2.02c-1.062,0-1.699,0.639-1.699,2.02v5.419h-2.763
			v-9.774h2.763v1.382c0.637-0.851,1.486-1.595,2.867-1.595c2.126,0,3.294,1.381,3.294,3.612v6.375H312.049L312.049,295.562z"/>
		<path fill="#FFFFFF" d="M324.481,286.744l-2.02-1.594c1.273-1.7,2.443-2.656,4.781-2.656c2.762,0,4.355,1.595,4.355,3.932
			c0,2.125-1.062,3.188-3.4,4.993l-2.125,1.595h5.525v2.442h-9.457v-2.229l4.25-3.507c1.594-1.274,2.23-2.02,2.23-3.081
			c0-1.062-0.742-1.7-1.699-1.7C326.075,285.043,325.437,285.575,324.481,286.744z"/>
	</g>
	
		<line fill="none" stroke="#FFFFFF" stroke-width="1.9259" stroke-miterlimit="10" x1="214.937" y1="301.512" x2="332.45" y2="301.512"/>
	<path fill="none" stroke="#FFFFFF" stroke-width="4.2964" stroke-miterlimit="10" d="M271.887,398.625
		c-9.882,0-17.852,7.969-17.852,17.852c0,9.881,7.97,17.85,17.852,17.85c9.881,0,17.85-7.969,17.85-17.85
		C289.737,406.594,281.768,398.625,271.887,398.625L271.887,398.625z"/>
	<path fill="none" stroke="#FFFFFF" stroke-width="4.2964" stroke-miterlimit="10" d="M299.724,462.48
		c0-10.943-8.818-19.869-19.868-19.869h-15.831c-10.944,0-19.869,8.926-19.869,19.869v7.969h55.463v-7.969H299.724z"/>
	<g>
		<path fill="#FFFFFF" d="M221.1,494.674c-3.931,0-6.694-2.762-6.694-6.586l0,0c0-3.613,2.869-6.59,6.694-6.59
			c2.337,0,3.719,0.639,4.994,1.701l-1.806,2.125c-0.957-0.85-1.913-1.275-3.294-1.275c-2.019,0-3.719,1.807-3.719,3.932l0,0
			c0,2.338,1.594,4.037,3.825,4.037c1.062,0,1.913-0.211,2.656-0.742v-1.807h-2.869v-2.443h5.525v5.523
			C225.243,493.719,223.437,494.674,221.1,494.674z"/>
		<path fill="#FFFFFF" d="M238.1,490.531h-6.8c0.319,1.275,1.169,1.912,2.444,1.912c0.957,0,1.594-0.318,2.337-0.957l1.594,1.383
			c-0.956,1.168-2.231,1.807-4.037,1.807c-2.975,0-5.1-2.02-5.1-5.102l0,0c0-2.762,2.019-5.1,4.887-5.1
			c3.294,0,4.781,2.551,4.781,5.312l0,0C238.1,490.105,238.1,490.213,238.1,490.531z M233.318,486.705
			c-1.169,0-1.913,0.852-2.125,2.125h4.144C235.231,487.557,234.487,486.705,233.318,486.705z"/>
		<path fill="#FFFFFF" d="M246.387,494.463v-5.42c0-1.275-0.638-2.02-1.7-2.02s-1.7,0.639-1.7,2.02v5.42h-2.762v-9.775h2.762v1.381
			c0.638-0.85,1.488-1.594,2.869-1.594c2.125,0,3.293,1.381,3.293,3.613v6.375H246.387z"/>
		<path fill="#FFFFFF" d="M260.625,490.531h-6.801c0.318,1.275,1.169,1.912,2.443,1.912c0.956,0,1.594-0.318,2.338-0.957
			l1.594,1.383c-0.956,1.168-2.23,1.807-4.038,1.807c-2.975,0-5.1-2.02-5.1-5.102l0,0c0-2.762,2.019-5.1,4.888-5.1
			c3.294,0,4.781,2.551,4.781,5.312l0,0C260.625,490.105,260.625,490.213,260.625,490.531z M255.95,486.705
			c-1.169,0-1.913,0.852-2.125,2.125h4.145C257.755,487.557,257.119,486.705,255.95,486.705z"/>
		<path fill="#FFFFFF" d="M268.487,487.344c-1.806,0-2.975,1.061-2.975,3.398v3.613h-2.764v-9.775h2.764v2.02
			c0.531-1.381,1.486-2.23,3.081-2.125v2.869H268.487L268.487,487.344z"/>
		<path fill="#FFFFFF" d="M275.606,494.463V493.4c-0.638,0.742-1.594,1.273-2.976,1.273c-1.807,0-3.399-1.062-3.399-2.975l0,0
			c0-2.125,1.594-3.082,3.931-3.082c0.957,0,1.7,0.213,2.444,0.426v-0.213c0-1.168-0.744-1.807-2.125-1.807
			c-1.062,0-1.807,0.213-2.656,0.531l-0.744-2.125c1.062-0.424,2.125-0.744,3.825-0.744c3.081,0,4.356,1.594,4.356,4.25v5.633
			h-2.656V494.463z M275.712,490.531c-0.427-0.213-1.062-0.318-1.808-0.318c-1.169,0-1.912,0.426-1.912,1.381l0,0
			c0,0.744,0.638,1.17,1.487,1.17c1.274,0,2.125-0.744,2.125-1.701v-0.531H275.712L275.712,490.531z"/>
		<path fill="#FFFFFF" d="M283.893,494.568c-1.7,0-2.868-0.637-2.868-2.975v-4.676h-1.169v-2.338h1.169v-2.551h2.762v2.551h2.338
			v2.338h-2.338v4.145c0,0.637,0.319,0.955,0.852,0.955s0.956-0.105,1.381-0.318v2.232
			C285.593,494.355,284.849,494.568,283.893,494.568z"/>
		<path fill="#FFFFFF" d="M288.25,483.625v-2.443h2.869v2.443H288.25z M288.356,494.463v-9.775h2.763v9.775H288.356z"/>
		<path fill="#FFFFFF" d="M298.556,494.674c-3.082,0-5.312-2.23-5.312-5.1l0,0c0-2.764,2.23-5.1,5.312-5.1
			c3.081,0,5.312,2.229,5.312,5.1l0,0C303.869,492.338,301.531,494.674,298.556,494.674z M301.106,489.574
			c0-1.486-1.062-2.656-2.55-2.656c-1.594,0-2.551,1.275-2.551,2.656l0,0c0,1.488,1.062,2.656,2.551,2.656
			C300.15,492.23,301.106,491.062,301.106,489.574L301.106,489.574z"/>
		<path fill="#FFFFFF" d="M312.049,494.463v-5.42c0-1.275-0.639-2.02-1.699-2.02c-1.062,0-1.699,0.639-1.699,2.02v5.42h-2.763
			v-9.775h2.763v1.381c0.637-0.85,1.486-1.594,2.867-1.594c2.126,0,3.294,1.381,3.294,3.613v6.375H312.049z"/>
		<path fill="#FFFFFF" d="M322.888,484.049v-2.443h8.605v2.125l-3.188,3.082c1.699,0.318,3.398,1.168,3.398,3.611
			s-1.699,4.25-4.568,4.25c-2.338,0-3.932-0.955-4.994-2.23l1.914-1.807c0.85,0.957,1.805,1.486,3.08,1.486
			c1.062,0,1.807-0.637,1.807-1.594c0-1.061-0.85-1.594-2.551-1.594h-1.168l-0.426-1.805l3.082-3.082H322.888L322.888,484.049z"/>
	</g>
	
		<line fill="none" stroke="#FFFFFF" stroke-width="1.9192" stroke-miterlimit="10" x1="214.937" y1="500.412" x2="331.599" y2="500.412"/>
	<g>
		<path fill="#FFFFFF" d="M121.012,164.343v-5.844l-2.55,3.825l0,0l-2.444-3.719v5.737h-2.019v-8.925h2.125l2.337,3.825l2.337-3.825
			h2.125v8.925L121.012,164.343L121.012,164.343z"/>
		<path fill="#FFFFFF" d="M128.237,164.45c-2.125,0-3.719-1.594-3.719-3.506l0,0c0-1.913,1.594-3.506,3.719-3.506
			s3.719,1.594,3.719,3.506l0,0C131.956,162.856,130.362,164.45,128.237,164.45z M130.043,160.943c0-0.956-0.744-1.913-1.807-1.913
			s-1.806,0.85-1.806,1.913l0,0c0,0.957,0.744,1.913,1.806,1.913C129.406,162.75,130.043,161.9,130.043,160.943L130.043,160.943z"/>
		<path fill="#FFFFFF" d="M137.374,159.35c-1.275,0-2.125,0.744-2.125,2.444v2.55h-1.913v-6.8h1.913v1.381
			c0.425-0.957,1.062-1.594,2.231-1.488L137.374,159.35L137.374,159.35z"/>
		<path fill="#FFFFFF" d="M140.987,164.45c-1.168,0-2.019-0.425-2.019-2.019v-3.188h-0.85v-1.7h0.85v-1.7h1.913v1.7h1.594v1.7
			h-1.594v2.869c0,0.425,0.212,0.637,0.637,0.637c0.319,0,0.638-0.106,0.957-0.212v1.594
			C142.049,164.237,141.624,164.45,140.987,164.45z"/>
		<path fill="#FFFFFF" d="M146.831,166.362c-1.062,0-2.125-0.212-2.975-0.744l0.637-1.488c0.744,0.425,1.381,0.638,2.337,0.638
			c1.275,0,1.913-0.638,1.913-1.913v-0.319c-0.531,0.638-1.168,1.062-2.231,1.062c-1.594,0-3.082-1.168-3.082-3.188l0,0
			c0-2.019,1.488-3.188,3.082-3.188c1.062,0,1.7,0.425,2.231,1.062v-0.85h1.913v5.312
			C150.656,165.3,149.381,166.362,146.831,166.362z M148.743,160.519c0-0.957-0.744-1.594-1.7-1.594c-0.957,0-1.7,0.637-1.7,1.594
			l0,0c0,0.956,0.744,1.594,1.7,1.594C148,162.112,148.743,161.475,148.743,160.519L148.743,160.519z"/>
		<path fill="#FFFFFF" d="M156.393,164.343v-0.744c-0.425,0.531-1.168,0.85-2.019,0.85c-1.275,0-2.337-0.744-2.337-2.125l0,0
			c0-1.487,1.168-2.231,2.762-2.231c0.638,0,1.169,0.106,1.7,0.319v-0.106c0-0.85-0.531-1.275-1.487-1.275
			c-0.744,0-1.275,0.106-1.913,0.319l-0.531-1.487c0.744-0.319,1.487-0.531,2.656-0.531c2.125,0,3.081,1.062,3.081,2.975v3.931
			h-1.913L156.393,164.343L156.393,164.343z M156.393,161.581c-0.318-0.106-0.744-0.212-1.275-0.212
			c-0.85,0-1.381,0.318-1.381,0.956l0,0c0,0.531,0.425,0.85,1.062,0.85c0.957,0,1.488-0.531,1.488-1.169v-0.425H156.393z"/>
		<path fill="#FFFFFF" d="M162.981,166.362c-1.062,0-2.125-0.212-2.975-0.744l0.637-1.488c0.744,0.425,1.381,0.638,2.338,0.638
			c1.275,0,1.912-0.638,1.912-1.913v-0.319c-0.531,0.638-1.168,1.062-2.231,1.062c-1.594,0-3.082-1.168-3.082-3.188l0,0
			c0-2.019,1.488-3.188,3.082-3.188c1.062,0,1.7,0.425,2.231,1.062v-0.85h1.913v5.312
			C166.806,165.3,165.531,166.362,162.981,166.362z M164.893,160.519c0-0.957-0.744-1.594-1.7-1.594c-0.957,0-1.7,0.637-1.7,1.594
			l0,0c0,0.956,0.744,1.594,1.7,1.594C164.149,162.112,164.893,161.475,164.893,160.519L164.893,160.519z"/>
		<path fill="#FFFFFF" d="M174.881,161.581H170.1c0.212,0.85,0.85,1.381,1.7,1.381c0.638,0,1.169-0.213,1.7-0.744l1.062,0.957
			c-0.638,0.744-1.594,1.275-2.763,1.275c-2.019,0-3.612-1.487-3.612-3.506l0,0c0-1.913,1.381-3.506,3.4-3.506
			c2.231,0,3.294,1.807,3.294,3.719l0,0C174.881,161.262,174.881,161.369,174.881,161.581z M171.587,158.925
			c-0.85,0-1.275,0.531-1.487,1.487h2.869C172.862,159.456,172.437,158.925,171.587,158.925z"/>
	</g>
	<g>
		<path fill="#FFFFFF" d="M371.55,158.075h-1.488v2.656h-1.912v-8.925h3.613c2.125,0,3.398,1.275,3.398,3.081l0,0
			C375.161,157.012,373.567,158.075,371.55,158.075z M373.144,154.994c0-0.85-0.639-1.381-1.594-1.381h-1.488v2.762h1.594
			C372.612,156.269,373.144,155.737,373.144,154.994L373.144,154.994z"/>
		<path fill="#FFFFFF" d="M380.474,155.843c-1.273,0-2.125,0.744-2.125,2.444v2.55h-1.912v-6.8h1.912v1.381
			c0.426-0.956,1.062-1.594,2.23-1.487L380.474,155.843L380.474,155.843z"/>
		<path fill="#FFFFFF" d="M381.749,153.187v-1.7h2.02v1.7H381.749z M381.856,160.731v-6.8h1.912v6.8H381.856z"/>
		<path fill="#FFFFFF" d="M389.931,160.731v-3.825c0-0.956-0.426-1.381-1.168-1.381c-0.744,0-1.17,0.425-1.17,1.381v3.825h-1.912
			v-6.8h1.912v0.956c0.426-0.531,1.062-1.062,2.02-1.062c1.486,0,2.338,0.956,2.338,2.55v4.463h-2.02V160.731z"/>
		<path fill="#FFFFFF" d="M396.731,160.943c-2.02,0-3.508-1.594-3.508-3.506l0,0c0-1.912,1.488-3.506,3.613-3.506
			c1.273,0,2.125,0.425,2.762,1.168l-1.168,1.275c-0.426-0.425-0.852-0.744-1.594-0.744c-0.957,0-1.699,0.85-1.699,1.913l0,0
			c0,1.062,0.637,1.913,1.699,1.913c0.637,0,1.062-0.319,1.594-0.744l1.168,1.168C398.962,160.412,398.112,160.943,396.731,160.943z
			"/>
		<path fill="#FFFFFF" d="M400.874,153.187v-1.7h2.02v1.7H400.874z M400.874,160.731v-6.8h1.912v6.8H400.874z"/>
		<path fill="#FFFFFF" d="M408.737,160.837c-1.062,0-1.701-0.425-2.125-1.062v2.975H404.7v-8.818h1.912v0.956
			c0.424-0.638,1.168-1.062,2.125-1.062c1.594,0,3.08,1.275,3.08,3.506l0,0C411.817,159.668,410.331,160.837,408.737,160.837z
			 M409.905,157.331c0-1.169-0.744-1.913-1.699-1.913c-0.957,0-1.699,0.744-1.699,1.913l0,0c0,1.168,0.742,1.913,1.699,1.913
			C409.161,159.244,409.905,158.5,409.905,157.331L409.905,157.331z"/>
		<path fill="#FFFFFF" d="M413.411,160.731v-9.35h1.914v9.35H413.411z"/>
		<path fill="#FFFFFF" d="M423.505,157.968h-4.781c0.213,0.85,0.852,1.381,1.701,1.381c0.637,0,1.168-0.212,1.699-0.744l1.062,0.956
			c-0.639,0.744-1.594,1.275-2.764,1.275c-2.02,0-3.611-1.488-3.611-3.506l0,0c0-1.913,1.381-3.506,3.4-3.506
			c2.229,0,3.293,1.806,3.293,3.719l0,0C423.505,157.756,423.505,157.862,423.505,157.968z M420.212,155.312
			c-0.852,0-1.275,0.531-1.488,1.488h2.869C421.487,155.95,420.956,155.312,420.212,155.312z"/>
		<path fill="#FFFFFF" d="M434.981,160.943l-1.062-1.062c-0.744,0.638-1.594,0.957-2.656,0.957c-1.699,0-2.977-0.957-2.977-2.55
			c0-1.168,0.639-1.913,1.701-2.444c-0.426-0.637-0.639-1.168-0.639-1.806c0-1.275,0.957-2.337,2.656-2.337
			c1.488,0,2.551,0.956,2.551,2.231c0,1.168-0.744,1.912-1.912,2.337l1.168,1.168c0.318-0.425,0.639-0.956,0.85-1.487l1.488,0.744
			c-0.318,0.638-0.744,1.275-1.168,1.913l1.273,1.275L434.981,160.943z M431.155,157.012c-0.637,0.319-0.85,0.744-0.85,1.169
			c0,0.637,0.531,1.062,1.273,1.062c0.426,0,0.852-0.213,1.275-0.531L431.155,157.012z M432.112,153.187
			c-0.531,0-0.85,0.319-0.85,0.957c0,0.425,0.105,0.744,0.531,1.168c0.742-0.318,1.168-0.637,1.168-1.168
			C432.962,153.506,432.644,153.187,432.112,153.187z"/>
		<path fill="#FFFFFF" d="M378.243,176.031v-8.925h1.912v8.925H378.243z"/>
		<path fill="#FFFFFF" d="M386.53,176.031v-3.825c0-0.957-0.424-1.381-1.168-1.381s-1.17,0.425-1.17,1.381v3.825h-1.912v-6.8h1.912
			v0.956c0.426-0.531,1.062-1.062,2.021-1.062c1.486,0,2.336,0.957,2.336,2.55v4.462h-2.02V176.031L386.53,176.031z"/>
		<path fill="#FFFFFF" d="M392.481,176.137c-1.17,0-2.02-0.425-2.02-2.019v-3.188h-0.852v-1.7h0.852v-1.7h1.912v1.7h1.594v1.7
			h-1.594v2.869c0,0.425,0.213,0.637,0.639,0.637c0.316,0,0.637-0.106,0.955-0.212v1.594
			C393.649,176.031,393.118,176.137,392.481,176.137z"/>
		<path fill="#FFFFFF" d="M401.618,173.269h-4.779c0.211,0.85,0.85,1.381,1.697,1.381c0.639,0,1.17-0.213,1.701-0.744l1.062,0.957
			c-0.639,0.744-1.596,1.275-2.764,1.275c-2.02,0-3.611-1.487-3.611-3.506l0,0c0-1.913,1.381-3.506,3.398-3.506
			c2.232,0,3.295,1.807,3.295,3.719l0,0C401.618,173.056,401.618,173.162,401.618,173.269z M398.325,170.612
			c-0.852,0-1.275,0.531-1.486,1.487h2.867C399.706,171.25,399.175,170.612,398.325,170.612z"/>
		<path fill="#FFFFFF" d="M407.144,171.144c-1.275,0-2.125,0.744-2.125,2.444v2.55h-1.912v-6.906h1.912v1.381
			c0.424-0.957,1.061-1.594,2.23-1.488L407.144,171.144L407.144,171.144z"/>
		<path fill="#FFFFFF" d="M414.581,173.269H409.8c0.213,0.85,0.852,1.381,1.701,1.381c0.637,0,1.168-0.213,1.699-0.744l1.062,0.957
			c-0.639,0.744-1.594,1.275-2.764,1.275c-2.02,0-3.611-1.487-3.611-3.506l0,0c0-1.913,1.381-3.506,3.398-3.506
			c2.23,0,3.293,1.807,3.293,3.719l0,0C414.581,173.056,414.581,173.162,414.581,173.269z M411.286,170.612
			c-0.85,0-1.273,0.531-1.486,1.487h2.869C412.562,171.25,412.138,170.612,411.286,170.612z"/>
		<path fill="#FFFFFF" d="M418.405,176.137c-0.955,0-2.018-0.319-2.975-1.062l0.85-1.275c0.744,0.531,1.488,0.85,2.125,0.85
			c0.531,0,0.852-0.213,0.852-0.531l0,0c0-0.425-0.639-0.531-1.383-0.744c-0.955-0.318-2.018-0.744-2.018-2.019l0,0
			c0-1.381,1.168-2.125,2.549-2.125c0.852,0,1.809,0.319,2.551,0.744l-0.742,1.381c-0.639-0.425-1.383-0.638-1.809-0.638
			c-0.424,0-0.744,0.213-0.744,0.425l0,0c0,0.425,0.639,0.531,1.383,0.85c0.955,0.318,2.02,0.744,2.02,2.019l0,0
			C421.062,175.5,419.894,176.137,418.405,176.137z"/>
		<path fill="#FFFFFF" d="M424.675,176.137c-1.17,0-2.02-0.425-2.02-2.019v-3.188h-0.85v-1.7h0.85v-1.7h1.912v1.7h1.594v1.7h-1.594
			v2.869c0,0.425,0.213,0.637,0.637,0.637c0.32,0,0.639-0.106,0.957-0.212v1.594C425.737,176.031,425.312,176.137,424.675,176.137z"
			/>
	</g>
	<g>
		<path fill="#FFFFFF" d="M121.012,363.137v-5.844l-2.55,3.824l0,0l-2.444-3.719v5.737h-2.019v-8.925h2.125l2.337,3.719l2.337-3.719
			h2.125v8.925L121.012,363.137L121.012,363.137z"/>
		<path fill="#FFFFFF" d="M128.237,363.244c-2.125,0-3.719-1.594-3.719-3.507l0,0c0-1.912,1.594-3.506,3.719-3.506
			s3.719,1.594,3.719,3.506l0,0C131.956,361.65,130.362,363.244,128.237,363.244z M130.043,359.737c0-0.956-0.744-1.912-1.807-1.912
			s-1.806,0.851-1.806,1.912l0,0c0,0.957,0.744,1.913,1.806,1.913C129.406,361.543,130.043,360.694,130.043,359.737L130.043,359.737
			z"/>
		<path fill="#FFFFFF" d="M137.374,358.143c-1.275,0-2.125,0.744-2.125,2.444v2.55h-1.913v-6.906h1.913v1.381
			c0.425-0.956,1.062-1.594,2.231-1.487L137.374,358.143L137.374,358.143z"/>
		<path fill="#FFFFFF" d="M140.987,363.244c-1.168,0-2.019-0.425-2.019-2.019v-3.188h-0.85v-1.807h0.85v-1.7h1.913v1.7h1.594v1.7
			h-1.594v2.868c0,0.426,0.212,0.638,0.637,0.638c0.319,0,0.638-0.106,0.957-0.212v1.594
			C142.049,363.031,141.624,363.244,140.987,363.244z"/>
		<path fill="#FFFFFF" d="M146.831,365.156c-1.062,0-2.125-0.212-2.975-0.743l0.637-1.487c0.744,0.426,1.381,0.638,2.337,0.638
			c1.275,0,1.913-0.638,1.913-1.912v-0.319c-0.531,0.639-1.168,1.062-2.231,1.062c-1.594,0-3.082-1.168-3.082-3.188l0,0
			c0-2.019,1.488-3.188,3.082-3.188c1.062,0,1.7,0.426,2.231,1.062v-0.85h1.913v5.312
			C150.656,364.093,149.381,365.156,146.831,365.156z M148.743,359.312c0-0.956-0.744-1.594-1.7-1.594c-0.957,0-1.7,0.638-1.7,1.594
			l0,0c0,0.956,0.744,1.594,1.7,1.594C148,360.906,148.743,360.268,148.743,359.312L148.743,359.312z"/>
		<path fill="#FFFFFF" d="M156.393,363.137v-0.744c-0.425,0.531-1.168,0.851-2.019,0.851c-1.275,0-2.337-0.743-2.337-2.125l0,0
			c0-1.486,1.168-2.23,2.762-2.23c0.638,0,1.169,0.105,1.7,0.317v-0.104c0-0.852-0.531-1.275-1.487-1.275
			c-0.744,0-1.275,0.106-1.913,0.318l-0.531-1.487c0.744-0.317,1.487-0.531,2.656-0.531c2.125,0,3.081,1.062,3.081,2.977v3.931
			h-1.913L156.393,363.137L156.393,363.137z M156.393,360.375c-0.318-0.105-0.744-0.212-1.275-0.212
			c-0.85,0-1.381,0.318-1.381,0.956l0,0c0,0.531,0.425,0.851,1.062,0.851c0.957,0,1.488-0.531,1.488-1.169v-0.426H156.393z"/>
		<path fill="#FFFFFF" d="M162.981,365.156c-1.062,0-2.125-0.212-2.975-0.743l0.637-1.487c0.744,0.426,1.381,0.638,2.338,0.638
			c1.275,0,1.912-0.638,1.912-1.912v-0.319c-0.531,0.639-1.168,1.062-2.231,1.062c-1.594,0-3.082-1.168-3.082-3.188l0,0
			c0-2.019,1.488-3.188,3.082-3.188c1.062,0,1.7,0.426,2.231,1.062v-0.85h1.913v5.312
			C166.806,364.093,165.531,365.156,162.981,365.156z M164.893,359.312c0-0.956-0.744-1.594-1.7-1.594c-0.957,0-1.7,0.638-1.7,1.594
			l0,0c0,0.956,0.744,1.594,1.7,1.594S164.893,360.268,164.893,359.312L164.893,359.312z"/>
		<path fill="#FFFFFF" d="M174.881,360.375H170.1c0.212,0.852,0.85,1.383,1.7,1.383c0.638,0,1.169-0.214,1.7-0.744l1.062,0.956
			c-0.638,0.744-1.594,1.274-2.763,1.274c-2.019,0-3.612-1.486-3.612-3.507l0,0c0-1.912,1.381-3.506,3.4-3.506
			c2.231,0,3.294,1.807,3.294,3.719l0,0C174.881,360.056,174.881,360.163,174.881,360.375z M171.587,357.718
			c-0.85,0-1.275,0.53-1.487,1.486h2.869C172.862,358.25,172.437,357.718,171.587,357.718z"/>
	</g>
	<g>
		<path fill="#FFFFFF" d="M371.55,356.869h-1.488v2.656h-1.912V350.6h3.613c2.125,0,3.398,1.273,3.398,3.081l0,0
			C375.161,355.806,373.567,356.869,371.55,356.869z M373.144,353.681c0-0.852-0.639-1.382-1.594-1.382h-1.488v2.763h1.594
			C372.612,355.062,373.144,354.531,373.144,353.681L373.144,353.681z"/>
		<path fill="#FFFFFF" d="M380.474,354.531c-1.273,0-2.125,0.744-2.125,2.444v2.55h-1.912v-6.8h1.912v1.381
			c0.426-0.956,1.062-1.594,2.23-1.487L380.474,354.531L380.474,354.531z"/>
		<path fill="#FFFFFF" d="M381.749,351.981v-1.7h2.02v1.7H381.749z M381.856,359.525v-6.8h1.912v6.8H381.856z"/>
		<path fill="#FFFFFF" d="M389.931,359.525V355.7c0-0.956-0.426-1.381-1.168-1.381c-0.744,0-1.17,0.425-1.17,1.381v3.825h-1.912
			v-6.8h1.912v0.956c0.426-0.531,1.062-1.062,2.02-1.062c1.486,0,2.338,0.956,2.338,2.55v4.464h-2.02V359.525z"/>
		<path fill="#FFFFFF" d="M396.731,359.631c-2.02,0-3.508-1.595-3.508-3.508l0,0c0-1.911,1.488-3.506,3.613-3.506
			c1.273,0,2.125,0.425,2.762,1.169l-1.168,1.274c-0.426-0.425-0.852-0.743-1.594-0.743c-0.957,0-1.699,0.85-1.699,1.912l0,0
			c0,1.062,0.637,1.912,1.699,1.912c0.637,0,1.062-0.318,1.594-0.743l1.168,1.169C398.962,359.1,398.112,359.631,396.731,359.631z"
			/>
		<path fill="#FFFFFF" d="M400.874,351.981v-1.7h2.02v1.7H400.874z M400.874,359.525v-6.8h1.912v6.8H400.874z"/>
		<path fill="#FFFFFF" d="M408.737,359.631c-1.062,0-1.701-0.427-2.125-1.062v2.975H404.7v-8.817h1.912v0.956
			c0.424-0.639,1.168-1.062,2.125-1.062c1.594,0,3.08,1.274,3.08,3.506l0,0C411.817,358.356,410.331,359.631,408.737,359.631z
			 M409.905,356.125c0-1.169-0.744-1.911-1.699-1.911c-0.957,0-1.699,0.742-1.699,1.911l0,0c0,1.17,0.742,1.913,1.699,1.913
			C409.161,358.038,409.905,357.293,409.905,356.125L409.905,356.125z"/>
		<path fill="#FFFFFF" d="M413.411,359.525v-9.351h1.914v9.351H413.411z"/>
		<path fill="#FFFFFF" d="M423.505,356.762h-4.781c0.213,0.85,0.852,1.381,1.701,1.381c0.637,0,1.168-0.212,1.699-0.743l1.062,0.956
			c-0.639,0.744-1.594,1.275-2.764,1.275c-2.02,0-3.611-1.488-3.611-3.508l0,0c0-1.911,1.381-3.506,3.4-3.506
			c2.229,0,3.293,1.807,3.293,3.72l0,0C423.505,356.444,423.505,356.549,423.505,356.762z M420.212,354.106
			c-0.852,0-1.275,0.531-1.488,1.487h2.869C421.487,354.744,420.956,354.106,420.212,354.106z"/>
		<path fill="#FFFFFF" d="M434.981,359.737l-1.062-1.062c-0.744,0.638-1.594,0.957-2.656,0.957c-1.699,0-2.977-0.957-2.977-2.552
			c0-1.168,0.639-1.911,1.701-2.442c-0.426-0.639-0.639-1.169-0.639-1.808c0-1.273,0.957-2.337,2.656-2.337
			c1.488,0,2.551,0.956,2.551,2.231c0,1.168-0.744,1.912-1.912,2.337l1.168,1.169c0.318-0.425,0.639-0.956,0.85-1.487l1.488,0.743
			c-0.318,0.638-0.744,1.275-1.168,1.913l1.273,1.274L434.981,359.737z M431.155,355.806c-0.637,0.317-0.85,0.743-0.85,1.169
			c0,0.637,0.531,1.062,1.273,1.062c0.426,0,0.852-0.213,1.275-0.53L431.155,355.806z M432.112,351.981
			c-0.531,0-0.85,0.318-0.85,0.956c0,0.425,0.105,0.744,0.531,1.169c0.742-0.318,1.168-0.638,1.168-1.169
			C432.962,352.299,432.644,351.981,432.112,351.981z"/>
		<path fill="#FFFFFF" d="M378.243,374.825V365.9h1.912v8.925H378.243z"/>
		<path fill="#FFFFFF" d="M386.53,374.825V371c0-0.956-0.424-1.381-1.168-1.381s-1.17,0.425-1.17,1.381v3.825h-1.912v-6.8h1.912
			v0.956c0.426-0.531,1.062-1.062,2.021-1.062c1.486,0,2.336,0.956,2.336,2.551v4.463h-2.02V374.825L386.53,374.825z"/>
		<path fill="#FFFFFF" d="M392.481,374.931c-1.17,0-2.02-0.425-2.02-2.02v-3.188h-0.852v-1.7h0.852v-1.7h1.912v1.7h1.594v1.7h-1.594
			v2.868c0,0.425,0.213,0.638,0.639,0.638c0.316,0,0.637-0.106,0.955-0.213v1.594C393.649,374.825,393.118,374.931,392.481,374.931z
			"/>
		<path fill="#FFFFFF" d="M401.618,372.062h-4.779c0.211,0.851,0.85,1.382,1.697,1.382c0.639,0,1.17-0.213,1.701-0.744l1.062,0.956
			c-0.639,0.744-1.596,1.275-2.764,1.275c-2.02,0-3.611-1.487-3.611-3.507l0,0c0-1.912,1.381-3.506,3.398-3.506
			c2.232,0,3.295,1.807,3.295,3.719l0,0C401.618,371.744,401.618,371.85,401.618,372.062z M398.325,369.406
			c-0.852,0-1.275,0.531-1.486,1.487h2.867C399.706,370.043,399.175,369.406,398.325,369.406z"/>
		<path fill="#FFFFFF" d="M407.144,369.831c-1.275,0-2.125,0.744-2.125,2.444v2.55h-1.912v-6.8h1.912v1.381
			c0.424-0.956,1.061-1.594,2.23-1.487L407.144,369.831L407.144,369.831z"/>
		<path fill="#FFFFFF" d="M414.581,372.062H409.8c0.213,0.851,0.852,1.382,1.701,1.382c0.637,0,1.168-0.213,1.699-0.744l1.062,0.956
			c-0.639,0.744-1.594,1.275-2.764,1.275c-2.02,0-3.611-1.487-3.611-3.507l0,0c0-1.912,1.381-3.506,3.398-3.506
			c2.23,0,3.293,1.807,3.293,3.719l0,0C414.581,371.744,414.581,371.85,414.581,372.062z M411.286,369.406
			c-0.85,0-1.273,0.531-1.486,1.487h2.869C412.562,370.043,412.138,369.406,411.286,369.406z"/>
		<path fill="#FFFFFF" d="M418.405,374.931c-0.955,0-2.018-0.319-2.975-1.062l0.85-1.274c0.744,0.53,1.488,0.851,2.125,0.851
			c0.531,0,0.852-0.213,0.852-0.531l0,0c0-0.426-0.639-0.53-1.383-0.743c-0.955-0.318-2.018-0.744-2.018-2.02l0,0
			c0-1.382,1.168-2.125,2.549-2.125c0.852,0,1.809,0.318,2.551,0.743l-0.742,1.382c-0.639-0.425-1.383-0.638-1.809-0.638
			c-0.424,0-0.744,0.213-0.744,0.425l0,0c0,0.425,0.639,0.531,1.383,0.851c0.955,0.318,2.02,0.743,2.02,2.02l0,0
			C421.062,374.293,419.894,374.931,418.405,374.931z"/>
		<path fill="#FFFFFF" d="M424.675,374.931c-1.17,0-2.02-0.425-2.02-2.02v-3.188h-0.85v-1.7h0.85v-1.7h1.912v1.7h1.594v1.7h-1.594
			v2.868c0,0.425,0.213,0.638,0.637,0.638c0.32,0,0.639-0.106,0.957-0.213v1.594C425.737,374.825,425.312,374.931,424.675,374.931z"
			/>
	</g>
	<path fill="none" stroke="#000000" stroke-miterlimit="10" d="M213.874,19.1"/>
	<path fill="none" stroke="#FFFFFF" stroke-miterlimit="10" d="M187.418,501.475"/>
</g>
<g id="Layer_4">
	<polygon fill="none" stroke="#FFFFFF" stroke-width="3" stroke-miterlimit="10" points="134.612,465.244 69.906,465.244 
		69.162,15.062 215.681,15.062 215.681,23.244 77.237,23.244 77.45,458.125 134.612,458.125 134.612,443.463 167.656,462.48 
		134.718,481.5 	"/>
	<g>
		<path fill="#FFFFFF" d="M11.149,243.712H7.643v-8.925h3.506c2.763,0,4.781,1.913,4.781,4.462l0,0
			C15.825,241.8,13.912,243.712,11.149,243.712z M13.806,239.25c0-1.594-1.062-2.656-2.656-2.656H9.662v5.419h1.487
			C12.743,242.012,13.806,240.843,13.806,239.25L13.806,239.25z"/>
		<path fill="#FFFFFF" d="M23.687,240.95h-4.781c0.212,0.85,0.85,1.381,1.7,1.381c0.637,0,1.168-0.212,1.7-0.744l1.062,0.956
			c-0.637,0.744-1.594,1.275-2.762,1.275c-2.019,0-3.613-1.487-3.613-3.506l0,0c0-1.912,1.381-3.506,3.4-3.506
			c2.231,0,3.294,1.806,3.294,3.719l0,0C23.793,240.737,23.793,240.843,23.687,240.95z M20.393,238.294
			c-0.85,0-1.275,0.531-1.487,1.487h2.869C21.774,238.931,21.243,238.294,20.393,238.294z"/>
		<path fill="#FFFFFF" d="M29.212,243.712v-0.744c-0.425,0.531-1.168,0.85-2.019,0.85c-1.275,0-2.337-0.744-2.337-2.125l0,0
			c0-1.487,1.168-2.231,2.762-2.231c0.638,0,1.169,0.106,1.7,0.318v-0.106c0-0.85-0.531-1.275-1.488-1.275
			c-0.744,0-1.275,0.106-1.912,0.318l-0.531-1.487c0.744-0.319,1.487-0.531,2.656-0.531c2.125,0,3.081,1.062,3.081,2.975v3.931
			h-1.912V243.712z M29.212,240.95c-0.319-0.106-0.744-0.212-1.275-0.212c-0.85,0-1.381,0.319-1.381,0.956l0,0
			c0,0.531,0.425,0.85,1.062,0.85c0.957,0,1.488-0.531,1.488-1.169v-0.425H29.212z"/>
		<path fill="#FFFFFF" d="M34.95,243.818c-1.169,0-2.019-0.425-2.019-2.019v-3.188h-0.744v-1.7h0.85v-1.7h1.913v1.7h1.594v1.7H34.95
			v2.869c0,0.425,0.212,0.638,0.637,0.638c0.319,0,0.638-0.106,0.957-0.213v1.594C36.118,243.712,35.693,243.818,34.95,243.818z"/>
		<path fill="#FFFFFF" d="M42.281,243.712v-3.825c0-0.956-0.425-1.381-1.169-1.381c-0.744,0-1.168,0.425-1.168,1.381v3.825h-1.913
			v-9.35h1.913v3.4c0.425-0.531,1.062-1.062,2.019-1.062c1.488,0,2.337,0.956,2.337,2.55v4.463L42.281,243.712L42.281,243.712z"/>
		<path fill="#FFFFFF" d="M7.75,259.012H3.5v-8.925h4.144c1.807,0,2.975,0.956,2.975,2.337l0,0c0,0.957-0.531,1.594-1.168,1.913
			c1.062,0.425,1.7,0.956,1.7,2.23l0,0C11.043,258.268,9.768,259.012,7.75,259.012z M8.6,252.744c0-0.638-0.425-0.956-1.275-0.956
			H5.412v1.912h1.806C8.068,253.7,8.6,253.487,8.6,252.744L8.6,252.744z M9.131,256.356c0-0.638-0.425-0.956-1.488-0.956H5.412
			v1.912h2.337C8.6,257.312,9.131,256.994,9.131,256.356L9.131,256.356z"/>
		<path fill="#FFFFFF" d="M18.799,256.25h-4.675c0.212,0.852,0.85,1.383,1.7,1.383c0.637,0,1.168-0.214,1.7-0.744l1.062,0.956
			c-0.637,0.744-1.594,1.274-2.762,1.274c-2.019,0-3.613-1.486-3.613-3.507l0,0c0-1.912,1.381-3.506,3.4-3.506
			c2.231,0,3.294,1.807,3.294,3.719l0,0C18.906,256.038,18.799,256.143,18.799,256.25z M15.506,253.593
			c-0.85,0-1.275,0.53-1.488,1.486h2.869C16.887,254.231,16.356,253.593,15.506,253.593z"/>
		<path fill="#FFFFFF" d="M24.643,259.012v-3.825c0-0.956-0.425-1.381-1.168-1.381c-0.743,0-1.169,0.425-1.169,1.381v3.825h-1.913
			v-6.8h1.913v0.956c0.425-0.531,1.062-1.062,2.019-1.062c1.487,0,2.337,0.956,2.337,2.55v4.463h-2.019V259.012z"/>
		<path fill="#FFFFFF" d="M34.631,256.25H29.85c0.212,0.852,0.85,1.383,1.7,1.383c0.638,0,1.169-0.214,1.7-0.744l1.062,0.956
			c-0.638,0.744-1.594,1.274-2.763,1.274c-2.019,0-3.612-1.486-3.612-3.507l0,0c0-1.912,1.381-3.506,3.4-3.506
			c2.231,0,3.294,1.807,3.294,3.719l0,0C34.631,256.038,34.631,256.143,34.631,256.25z M31.337,253.593
			c-0.85,0-1.275,0.53-1.487,1.486h2.869C32.612,254.231,32.081,253.593,31.337,253.593z"/>
		<path fill="#FFFFFF" d="M38.987,251.256c-0.425,0-0.744,0.212-0.744,0.742v0.319h1.594v1.594h-1.594v5.206h-1.806v-5.206h-0.85
			v-1.594h0.85v-0.426c0-1.487,0.744-2.23,2.125-2.23c0.638,0,1.062,0.105,1.381,0.212v1.595
			C39.624,251.362,39.306,251.256,38.987,251.256z"/>
		<path fill="#FFFFFF" d="M41.006,251.468v-1.7h2.019v1.7H41.006z M41.006,259.012v-6.8h1.913v6.8H41.006z"/>
		<path fill="#FFFFFF" d="M47.062,259.119c-1.169,0-2.019-0.425-2.019-2.019v-3.188h-0.85v-1.699h0.85v-1.7h2.019v1.7h1.594v1.699
			h-1.594v2.868c0,0.425,0.212,0.639,0.638,0.639c0.318,0,0.637-0.106,0.956-0.214v1.595
			C48.231,259.012,47.7,259.119,47.062,259.119z"/>
	</g>
</g>
<g id="Layer_5">
</g>
</svg>
