<?xml version="1.0" encoding="utf-8"?>
<!-- Generator: Adobe Illustrator 16.2.1, SVG Export Plug-In . SVG Version: 6.00 Build 0)  -->
<!DOCTYPE svg PUBLIC "-//W3C//DTD SVG 1.1//EN" "http://www.w3.org/Graphics/SVG/1.1/DTD/svg11.dtd">
<svg version="1.1" id="Layer_1" xmlns="http://www.w3.org/2000/svg" xmlns:xlink="http://www.w3.org/1999/xlink" x="0px" y="0px"
	 width="612px" height="792px" viewBox="0 0 612 792" enable-background="new 0 0 612 792" xml:space="preserve">
<path fill="#FFFFFF" d="M477.839,221.111h-85.375v45.301l-81.89-80.148L61.417,423.225h76.664v184.688h142.873V491.176h59.24
	v116.737h142.873V423.225h69.693l-73.178-73.179V221.111H477.839z M500.49,402.316h-40.074v184.689H359.359V470.268h-99.314v116.738
	H158.989V402.316h-45.301l196.886-186.432l102.799,101.057V242.02h43.559v116.737L500.49,402.316z M305.914,97.484
	c164.53,0,297.911,133.38,297.911,297.91c0,164.534-133.381,297.911-297.911,297.911c-164.531,0-297.911-133.377-297.911-297.91
	C8.003,230.864,141.383,97.484,305.914,97.484z"/>
</svg>
