<?xml version="1.0" encoding="utf-8"?>
<!-- Generator: Adobe Illustrator 16.2.1, SVG Export Plug-In . SVG Version: 6.00 Build 0)  -->
<!DOCTYPE svg PUBLIC "-//W3C//DTD SVG 1.1//EN" "http://www.w3.org/Graphics/SVG/1.1/DTD/svg11.dtd">
<svg version="1.1" id="Layer_1" xmlns="http://www.w3.org/2000/svg" xmlns:xlink="http://www.w3.org/1999/xlink" x="0px" y="0px"
	 width="612px" height="792px" viewBox="0 0 612 792" enable-background="new 0 0 612 792" xml:space="preserve">
<path fill="#FFFFFF" d="M109.646,337.261c0-2.237,2.237-4.475,4.475-4.475c2.238,0,4.476,2.238,4.476,4.475
	c0,2.238-2.238,4.476-4.476,4.476C111.883,341.737,109.646,339.499,109.646,337.261z M93.982,390.965l6.713,12.308
	c-4.476-25.733,10.069-38.041,27.971-36.921c8.951,0,27.971,7.832,35.802,7.832c24.614,1.119,43.635-44.753,17.901-39.159
	c-13.426,2.237-38.04,6.713-49.229-3.356c-52.585-48.11-142.091,0-132.022,74.961c5.594,43.635,36.921,77.199,88.388,72.725
	c19.02-1.118,34.684-7.831,48.11-20.14c15.664-14.545,23.495-31.327,23.495-52.585c0-5.594-2.237-10.069-5.594-14.545
	c-24.614-17.901-43.635,1.119-48.11,23.495c-5.594,30.209-25.733,55.942-51.466,44.754c-10.069-4.476-17.901-14.545-11.188-24.614
	c7.832-13.426,27.971,1.118,38.04-3.355C34.684,411.104,78.318,360.757,93.982,390.965L93.982,390.965z"/>
<path fill="#FFFFFF" d="M603.05,366.351v69.368H612v-69.368H603.05z M307.679,399.916c0-10.069-3.357-17.901-10.07-25.733
	c-6.713-6.713-15.664-10.069-25.733-10.069c-11.188,0-20.139,4.476-26.852,14.545v-12.307h-8.951v93.982h8.951v-36.922
	c7.832,8.951,16.782,13.426,27.971,13.426c10.069,0,17.901-3.355,25.733-11.188C304.322,418.936,307.679,409.985,307.679,399.916
	L307.679,399.916z M285.302,376.42c4.475,2.238,7.832,5.594,10.069,10.069c2.238,4.476,3.356,8.951,3.356,13.426
	c0,4.475-1.119,8.95-3.356,13.426c-2.237,4.477-5.594,7.832-10.069,10.069c-4.476,2.238-8.951,3.355-13.426,3.355
	s-8.951-1.117-13.426-3.355c-8.951-5.594-13.426-13.426-13.426-23.495c0-7.832,2.237-14.545,7.832-20.139
	c5.595-5.594,11.188-7.832,19.02-7.832C276.351,373.064,280.826,374.183,285.302,376.42L285.302,376.42z M314.392,339.499V434.6
	h8.95v-95.101H314.392L314.392,339.499z M364.738,364.113c-10.069,0-17.901,3.356-25.732,10.069
	c-6.713,6.713-10.07,15.664-10.07,25.733c0,10.069,3.357,19.02,10.07,25.733c6.713,6.713,15.663,11.188,25.732,11.188
	c11.188,0,20.14-4.475,27.971-13.426v12.308h8.951V366.35h-10.069v12.307C384.878,369.708,375.927,364.113,364.738,364.113
	L364.738,364.113z M364.738,373.064c7.832,0,14.545,2.238,19.021,7.832c5.594,5.594,7.832,12.307,7.832,20.139
	c0,5.594-1.119,10.068-3.355,14.544c-2.238,4.476-5.596,7.832-10.07,10.07c-4.475,2.236-8.95,3.355-13.426,3.355
	s-8.95-1.119-13.426-3.355c-4.477-2.238-7.832-5.596-10.069-10.07c-2.237-4.476-3.356-8.95-3.356-13.426
	c0-4.477,1.119-10.069,3.356-13.426C346.837,377.539,354.669,373.064,364.738,373.064L364.738,373.064z M408.373,366.351v7.832
	h12.307v61.536h8.951v-61.536h17.901l-3.356-7.832h-14.545v-25.733h-8.951v25.733H408.373z M450.889,366.351l27.972,63.773
	l-13.427,30.209h8.95l41.396-93.982h-8.95l-23.495,52.583l-23.496-52.583H450.889z M595.218,399.916
	c0-10.069-3.355-17.901-10.068-25.733c-6.714-6.713-15.664-10.069-25.733-10.069c-11.188,0-20.139,4.476-26.852,14.545v-12.307
	h-8.951v93.982h8.951v-36.922c7.831,8.951,16.781,13.426,27.971,13.426c10.069,0,17.901-3.355,25.732-11.188
	C591.861,418.936,595.218,409.985,595.218,399.916L595.218,399.916z M571.722,376.42c4.477,2.238,7.832,5.594,10.07,10.069
	c2.237,4.476,3.356,8.951,3.356,13.426c0,4.475-1.119,8.95-3.356,13.426c-2.238,4.477-5.595,7.832-10.07,10.069
	c-4.475,2.238-8.95,3.355-13.426,3.355s-8.95-1.117-13.426-3.355c-8.95-5.594-13.426-13.426-13.426-23.495
	c0-7.832,2.236-14.545,7.831-20.139c5.595-5.594,11.188-7.832,19.021-7.832C563.891,373.064,568.365,374.183,571.722,376.42z"/>
</svg>
