<?xml version="1.0" encoding="utf-8"?>
<!-- Generator: Adobe Illustrator 19.1.0, SVG Export Plug-In . SVG Version: 6.00 Build 0)  -->
<svg version="1.1" id="Layer_1" xmlns="http://www.w3.org/2000/svg" xmlns:xlink="http://www.w3.org/1999/xlink" x="0px" y="0px"
	 viewBox="0 0 115.5 38.2" style="enable-background:new 0 0 115.5 38.2;" xml:space="preserve">
<style type="text/css">
	.st0{opacity:0.48;fill:#FFFFFF;}
	.st1{opacity:0.46;fill:#FFFFFF;}
</style>
<g>
	<path class="st0" d="M14.2,33.2l2.9,0c0,0-0.5-7.6,5-8.3s7.9,3.6,7.5,8l3.2,0c0,0,0.6-9.9-7.1-11s-10.4,3-11.4,7.1
		S14.2,33.2,14.2,33.2z"/>
	<path class="st0" d="M84.5,33.2h3.2c0,0-0.7-7.6,4.8-8.3c5.5-0.6,7.9,3.4,7.6,7.8h3.4c0,0,0-10-7.7-11S85.6,24.9,84.7,29
		C83.8,33.2,84.5,33.2,84.5,33.2z"/>
	<path class="st1" d="M13.4,32.7H8.7c0,0-3-0.1-3-3.8s0-7.9,0-7.9s0.2-0.7,0.8-0.8c0.6-0.1,1.6,0,1.6,0s1.8,0.1,1.9-0.8
		c0-0.9-0.4-3.7-0.4-3.7s0-0.6,1-1.1c1.1-0.5,19.9-11.6,37.6-12.5S73.9,4.6,83.7,12c0,0,0.4,0.4,1.2,0.4c1.1,0,19.3-1.8,28.1,8.2
		l-0.7,0.6l0.1,8.6l0.6,1.4v1.3l-9.4-0.3c0,0,0.8-7.3-6.1-10.2c-5-2.1-9.7,0.1-11.5,2.8c-1.6,2.4-1.9,5.3-1.7,7.9l-51.5-0.3
		c0,0,0.6-5-2.8-8.4c-2.4-2.5-8.4-4.6-13.4,0.2c0,0-3,2.4-2.6,8.3l0,0.2H13.4z"/>
	<circle class="st1" cx="93.9" cy="30.6" r="6.3"/>
	<circle class="st1" cx="23.3" cy="30.6" r="6.3"/>
	<circle class="st1" cx="23.3" cy="30.6" r="2.9"/>
	<circle class="st1" cx="93.9" cy="30.6" r="2.8"/>
	<path class="st1" d="M47.3,5.7v7.6h31.9C79.2,13.4,70.6,3.7,47.3,5.7z"/>
	<path class="st1" d="M42.7,6.4v7H21.2C21.2,13.4,34.1,7,42.7,6.4z"/>
</g>
</svg>
