<?xml version="1.0" encoding="utf-8"?>
<!-- Generator: Adobe Illustrator 16.2.1, SVG Export Plug-In . SVG Version: 6.00 Build 0)  -->
<!DOCTYPE svg PUBLIC "-//W3C//DTD SVG 1.1//EN" "http://www.w3.org/Graphics/SVG/1.1/DTD/svg11.dtd">
<svg version="1.1" id="Layer_1" xmlns="http://www.w3.org/2000/svg" xmlns:xlink="http://www.w3.org/1999/xlink" x="0px" y="0px"
	 width="612px" height="792px" viewBox="0 0 612 792" enable-background="new 0 0 612 792" xml:space="preserve">
<g id="Layer_1_1_">
	<path fill="none" stroke="#FFFFFF" stroke-width="4.2964" stroke-miterlimit="10" d="M326.825,149.394
		c-9.882,0-17.851,7.969-17.851,17.85s7.969,17.85,17.851,17.85c9.881,0,17.85-7.969,17.85-17.85S336.706,149.394,326.825,149.394
		L326.825,149.394z"/>
	<path fill="none" stroke="#FFFFFF" stroke-width="4.2964" stroke-miterlimit="10" d="M354.662,213.25
		c0-10.944-8.818-19.869-19.868-19.869h-15.831c-10.944,0-19.869,8.925-19.869,19.869v7.969h55.463v-7.969H354.662z"/>
	<path fill="none" stroke="#FFFFFF" stroke-width="2.8714" stroke-miterlimit="10" d="M251.175,292.938
		c0,0-9.881,28.794,4.994,55.888l5.418-3.188c0,0-12.856-20.294-4.781-50.363l8.5,3.506l-2.975-24.756L242.462,288.9
		L251.175,292.938z"/>
	<path fill="none" stroke="#FFFFFF" stroke-width="2.8714" stroke-miterlimit="10" d="M402.581,328.85
		c0,0,9.882-28.794-4.993-55.888l-5.419,3.188c0,0,12.856,20.294,4.781,50.363l-8.5-3.506l2.975,24.756l19.869-14.875
		L402.581,328.85z"/>
	<path fill="none" stroke="#FFFFFF" stroke-width="2.8714" stroke-miterlimit="10" d="M251.175,492.05
		c0,0-9.881,28.794,4.994,55.888l5.418-3.188c0,0-12.856-20.294-4.781-50.362l8.5,3.506l-2.975-24.756l-19.869,14.875
		L251.175,492.05z"/>
	<path fill="none" stroke="#FFFFFF" stroke-width="2.8714" stroke-miterlimit="10" d="M402.581,527.963
		c0,0,9.882-28.794-4.993-55.888l-5.419,3.188c0,0,12.856,20.294,4.781,50.362l-8.5-3.506l2.975,24.756L411.294,532L402.581,527.963
		z"/>
	<g>
		<path fill="#FFFFFF" d="M277.1,245.444c-3.931,0-6.694-2.763-6.694-6.587l0,0c0-3.613,2.869-6.588,6.694-6.588
			c2.337,0,3.719,0.638,4.994,1.7l-1.806,2.125c-0.957-0.85-1.913-1.275-3.294-1.275c-2.019,0-3.719,1.806-3.719,3.931l0,0
			c0,2.337,1.594,4.038,3.825,4.038c1.062,0,1.913-0.212,2.656-0.744v-1.807h-2.869v-2.443h5.525v5.525
			C281.244,244.487,279.438,245.444,277.1,245.444z"/>
		<path fill="#FFFFFF" d="M294.1,241.3h-6.8c0.319,1.275,1.169,1.913,2.444,1.913c0.957,0,1.594-0.319,2.337-0.956l1.594,1.381
			c-0.956,1.168-2.231,1.806-4.037,1.806c-2.975,0-5.1-2.019-5.1-5.1l0,0c0-2.763,2.019-5.1,4.887-5.1
			c3.294,0,4.781,2.55,4.781,5.312l0,0C294.1,240.875,294.1,240.981,294.1,241.3z M289.319,237.475c-1.169,0-1.913,0.85-2.125,2.125
			h4.144C291.231,238.325,290.487,237.475,289.319,237.475z"/>
		<path fill="#FFFFFF" d="M302.388,245.231v-5.419c0-1.275-0.638-2.019-1.7-2.019s-1.7,0.637-1.7,2.019v5.419h-2.762v-9.775h2.762
			v1.381c0.638-0.85,1.488-1.594,2.869-1.594c2.125,0,3.293,1.381,3.293,3.613v6.375H302.388z"/>
		<path fill="#FFFFFF" d="M316.625,241.3h-6.8c0.318,1.275,1.169,1.913,2.443,1.913c0.956,0,1.594-0.319,2.338-0.956l1.594,1.381
			c-0.956,1.168-2.231,1.806-4.038,1.806c-2.975,0-5.1-2.019-5.1-5.1l0,0c0-2.763,2.019-5.1,4.888-5.1
			c3.294,0,4.781,2.55,4.781,5.312l0,0C316.625,240.875,316.625,240.981,316.625,241.3z M311.95,237.475
			c-1.169,0-1.913,0.85-2.125,2.125h4.144C313.756,238.325,313.119,237.475,311.95,237.475z"/>
		<path fill="#FFFFFF" d="M324.487,238.112c-1.806,0-2.975,1.062-2.975,3.4v3.612h-2.763v-9.775h2.763v2.019
			c0.531-1.381,1.487-2.231,3.081-2.125v2.869H324.487z"/>
		<path fill="#FFFFFF" d="M331.606,245.231v-1.062c-0.638,0.744-1.594,1.275-2.976,1.275c-1.806,0-3.399-1.062-3.399-2.975l0,0
			c0-2.125,1.594-3.081,3.931-3.081c0.957,0,1.7,0.212,2.444,0.425V239.6c0-1.169-0.744-1.806-2.125-1.806
			c-1.062,0-1.807,0.212-2.656,0.531l-0.744-2.125c1.062-0.425,2.125-0.744,3.825-0.744c3.081,0,4.356,1.594,4.356,4.25v5.631
			h-2.656V245.231z M331.713,241.3c-0.426-0.212-1.062-0.318-1.807-0.318c-1.169,0-1.912,0.425-1.912,1.381l0,0
			c0,0.744,0.637,1.169,1.487,1.169c1.274,0,2.125-0.744,2.125-1.7V241.3H331.713z"/>
		<path fill="#FFFFFF" d="M339.894,245.337c-1.7,0-2.868-0.637-2.868-2.975v-4.675h-1.169v-2.337h1.169v-2.55h2.762v2.55h2.338
			v2.337h-2.338v4.144c0,0.638,0.319,0.957,0.851,0.957s0.956-0.106,1.381-0.319v2.231
			C341.594,245.125,340.85,245.337,339.894,245.337z"/>
		<path fill="#FFFFFF" d="M344.25,234.288v-2.444h2.869v2.444H344.25z M344.356,245.231v-9.775h2.763v9.775H344.356z"/>
		<path fill="#FFFFFF" d="M354.557,245.444c-3.082,0-5.312-2.231-5.312-5.1l0,0c0-2.763,2.23-5.1,5.312-5.1
			c3.081,0,5.312,2.231,5.312,5.1l0,0C359.869,243.106,357.531,245.444,354.557,245.444z M357.106,240.344
			c0-1.487-1.062-2.656-2.55-2.656c-1.594,0-2.551,1.275-2.551,2.656l0,0c0,1.487,1.062,2.656,2.551,2.656
			C356.15,243,357.106,241.831,357.106,240.344L357.106,240.344z"/>
		<path fill="#FFFFFF" d="M368.05,245.231v-5.419c0-1.275-0.638-2.019-1.7-2.019s-1.699,0.637-1.699,2.019v5.419h-2.763v-9.775
			h2.763v1.381c0.637-0.85,1.487-1.594,2.868-1.594c2.125,0,3.294,1.381,3.294,3.613v6.375H368.05z"/>
		<path fill="#FFFFFF" d="M381.544,232.375h1.912v12.856h-2.763v-9.988l-2.23,0.531l-0.531-2.337L381.544,232.375z"/>
	</g>
	
		<line fill="none" stroke="#FFFFFF" stroke-width="1.8887" stroke-miterlimit="10" x1="270.938" y1="251.181" x2="383.987" y2="251.181"/>
	<path fill="none" stroke="#FFFFFF" stroke-width="4.2964" stroke-miterlimit="10" d="M326.825,347.869
		c-9.882,0-17.851,7.969-17.851,17.85s7.969,17.85,17.851,17.85c9.881,0,17.85-7.969,17.85-17.85S336.706,347.869,326.825,347.869
		L326.825,347.869z"/>
	<path fill="none" stroke="#FFFFFF" stroke-width="4.2964" stroke-miterlimit="10" d="M354.662,411.725
		c0-10.943-8.818-19.868-19.868-19.868h-15.831c-10.944,0-19.869,8.925-19.869,19.868v7.969h55.463v-7.969H354.662z"/>
	<g>
		<path fill="#FFFFFF" d="M276.038,443.919c-3.931,0-6.694-2.763-6.694-6.588l0,0c0-3.612,2.869-6.587,6.694-6.587
			c2.337,0,3.719,0.637,4.994,1.699l-1.806,2.125c-0.957-0.85-1.913-1.274-3.294-1.274c-2.019,0-3.719,1.806-3.719,3.931l0,0
			c0,2.338,1.594,4.038,3.825,4.038c1.062,0,1.913-0.213,2.656-0.744v-1.806h-2.869v-2.444h5.525v5.525
			C280.181,442.963,278.375,443.919,276.038,443.919z"/>
		<path fill="#FFFFFF" d="M293.038,439.775h-6.8c0.319,1.274,1.169,1.912,2.444,1.912c0.957,0,1.594-0.318,2.337-0.956l1.594,1.381
			c-0.956,1.169-2.231,1.807-4.037,1.807c-2.975,0-5.1-2.019-5.1-5.101l0,0c0-2.762,2.019-5.1,4.887-5.1
			c3.294,0,4.781,2.55,4.781,5.312l0,0C293.038,439.35,293.038,439.456,293.038,439.775z M288.256,435.95
			c-1.169,0-1.913,0.85-2.125,2.125h4.144C290.169,436.8,289.425,435.95,288.256,435.95z"/>
		<path fill="#FFFFFF" d="M301.325,443.706v-5.419c0-1.274-0.638-2.019-1.7-2.019s-1.7,0.638-1.7,2.019v5.419h-2.762v-9.774h2.762
			v1.381c0.638-0.85,1.488-1.594,2.869-1.594c2.125,0,3.293,1.381,3.293,3.612v6.375H301.325L301.325,443.706z"/>
		<path fill="#FFFFFF" d="M315.562,439.775h-6.8c0.318,1.274,1.169,1.912,2.443,1.912c0.956,0,1.594-0.318,2.338-0.956l1.594,1.381
			c-0.956,1.169-2.231,1.807-4.038,1.807c-2.975,0-5.1-2.019-5.1-5.101l0,0c0-2.762,2.019-5.1,4.888-5.1
			c3.294,0,4.781,2.55,4.781,5.312l0,0C315.562,439.35,315.562,439.456,315.562,439.775z M310.888,435.95
			c-1.169,0-1.913,0.85-2.125,2.125h4.144C312.693,436.8,312.057,435.95,310.888,435.95z"/>
		<path fill="#FFFFFF" d="M323.425,436.588c-1.806,0-2.975,1.062-2.975,3.399v3.612h-2.763v-9.774h2.763v2.019
			c0.531-1.381,1.487-2.231,3.081-2.125v2.869H323.425z"/>
		<path fill="#FFFFFF" d="M330.544,443.706v-1.062c-0.638,0.744-1.594,1.275-2.976,1.275c-1.806,0-3.399-1.062-3.399-2.976l0,0
			c0-2.125,1.594-3.081,3.931-3.081c0.957,0,1.7,0.213,2.444,0.425v-0.212c0-1.169-0.744-1.807-2.125-1.807
			c-1.062,0-1.807,0.213-2.656,0.531l-0.744-2.125c1.062-0.425,2.125-0.743,3.825-0.743c3.081,0,4.356,1.594,4.356,4.25v5.631
			h-2.656V443.706z M330.65,439.669c-0.426-0.213-1.062-0.319-1.807-0.319c-1.169,0-1.912,0.426-1.912,1.382l0,0
			c0,0.743,0.637,1.169,1.487,1.169c1.274,0,2.125-0.744,2.125-1.7v-0.531H330.65z"/>
		<path fill="#FFFFFF" d="M338.831,443.812c-1.7,0-2.868-0.638-2.868-2.975v-4.676h-1.169v-2.337h1.169v-2.55h2.762v2.55h2.338
			v2.337h-2.338v4.145c0,0.637,0.319,0.956,0.851,0.956s0.956-0.106,1.381-0.319v2.231
			C340.531,443.6,339.787,443.812,338.831,443.812z"/>
		<path fill="#FFFFFF" d="M343.188,432.763v-2.444h2.869v2.444H343.188z M343.294,443.706v-9.774h2.763v9.774H343.294z"/>
		<path fill="#FFFFFF" d="M353.494,443.919c-3.082,0-5.312-2.231-5.312-5.101l0,0c0-2.762,2.23-5.1,5.312-5.1
			c3.081,0,5.312,2.231,5.312,5.1l0,0C358.807,441.581,356.469,443.919,353.494,443.919z M356.044,438.818
			c0-1.487-1.062-2.656-2.55-2.656c-1.594,0-2.551,1.275-2.551,2.656l0,0c0,1.488,1.062,2.656,2.551,2.656
			C355.088,441.475,356.044,440.307,356.044,438.818L356.044,438.818z"/>
		<path fill="#FFFFFF" d="M366.987,443.706v-5.419c0-1.274-0.638-2.019-1.7-2.019s-1.699,0.638-1.699,2.019v5.419h-2.763v-9.774
			h2.763v1.381c0.637-0.85,1.487-1.594,2.868-1.594c2.125,0,3.294,1.381,3.294,3.612v6.375H366.987L366.987,443.706z"/>
		<path fill="#FFFFFF" d="M379.419,434.888l-2.019-1.594c1.274-1.7,2.443-2.656,4.781-2.656c2.762,0,4.355,1.594,4.355,3.931
			c0,2.125-1.062,3.188-3.399,4.994l-2.125,1.594h5.524v2.443h-9.456v-2.23l4.25-3.507c1.594-1.274,2.231-2.019,2.231-3.081
			s-0.744-1.7-1.7-1.7C381.013,433.188,380.375,433.719,379.419,434.888z"/>
	</g>
	
		<line fill="none" stroke="#FFFFFF" stroke-width="1.9259" stroke-miterlimit="10" x1="269.875" y1="449.656" x2="387.388" y2="449.656"/>
	<path fill="none" stroke="#FFFFFF" stroke-width="4.2964" stroke-miterlimit="10" d="M326.825,546.769
		c-9.882,0-17.851,7.969-17.851,17.851c0,9.881,7.969,17.85,17.851,17.85c9.881,0,17.85-7.969,17.85-17.85
		C344.675,554.737,336.706,546.769,326.825,546.769L326.825,546.769z"/>
	<path fill="none" stroke="#FFFFFF" stroke-width="4.2964" stroke-miterlimit="10" d="M354.662,610.625
		c0-10.943-8.818-19.869-19.868-19.869h-15.831c-10.944,0-19.869,8.926-19.869,19.869v7.969h55.463v-7.969H354.662z"/>
	<g>
		<path fill="#FFFFFF" d="M276.038,642.818c-3.931,0-6.694-2.762-6.694-6.587l0,0c0-3.612,2.869-6.588,6.694-6.588
			c2.337,0,3.719,0.638,4.994,1.7l-1.806,2.125c-0.957-0.85-1.913-1.275-3.294-1.275c-2.019,0-3.719,1.807-3.719,3.932l0,0
			c0,2.338,1.594,4.037,3.825,4.037c1.062,0,1.913-0.212,2.656-0.743v-1.807h-2.869v-2.443h5.525v5.524
			C280.181,641.862,278.375,642.818,276.038,642.818z"/>
		<path fill="#FFFFFF" d="M293.038,638.675h-6.8c0.319,1.275,1.169,1.913,2.444,1.913c0.957,0,1.594-0.319,2.337-0.957l1.594,1.382
			c-0.956,1.169-2.231,1.806-4.037,1.806c-2.975,0-5.1-2.019-5.1-5.1l0,0c0-2.763,2.019-5.1,4.887-5.1
			c3.294,0,4.781,2.55,4.781,5.312l0,0C293.038,638.25,293.038,638.356,293.038,638.675z M288.256,634.85
			c-1.169,0-1.913,0.851-2.125,2.125h4.144C290.169,635.7,289.425,634.85,288.256,634.85z"/>
		<path fill="#FFFFFF" d="M301.325,642.606v-5.419c0-1.275-0.638-2.019-1.7-2.019s-1.7,0.638-1.7,2.019v5.419h-2.762v-9.775h2.762
			v1.382c0.638-0.851,1.488-1.594,2.869-1.594c2.125,0,3.293,1.381,3.293,3.612v6.375H301.325z"/>
		<path fill="#FFFFFF" d="M315.562,638.675h-6.8c0.318,1.275,1.169,1.913,2.443,1.913c0.956,0,1.594-0.319,2.338-0.957l1.594,1.382
			c-0.956,1.169-2.231,1.806-4.038,1.806c-2.975,0-5.1-2.019-5.1-5.1l0,0c0-2.763,2.019-5.1,4.888-5.1
			c3.294,0,4.781,2.55,4.781,5.312l0,0C315.562,638.25,315.562,638.356,315.562,638.675z M310.888,634.85
			c-1.169,0-1.913,0.851-2.125,2.125h4.144C312.693,635.7,312.057,634.85,310.888,634.85z"/>
		<path fill="#FFFFFF" d="M323.425,635.487c-1.806,0-2.975,1.062-2.975,3.4v3.612h-2.763v-9.775h2.763v2.02
			c0.531-1.382,1.487-2.231,3.081-2.125v2.868H323.425L323.425,635.487z"/>
		<path fill="#FFFFFF" d="M330.544,642.606v-1.062c-0.638,0.743-1.594,1.274-2.976,1.274c-1.806,0-3.399-1.062-3.399-2.975l0,0
			c0-2.125,1.594-3.081,3.931-3.081c0.957,0,1.7,0.212,2.444,0.425v-0.213c0-1.168-0.744-1.806-2.125-1.806
			c-1.062,0-1.807,0.212-2.656,0.531l-0.744-2.125c1.062-0.425,2.125-0.744,3.825-0.744c3.081,0,4.356,1.594,4.356,4.25v5.632
			h-2.656V642.606z M330.65,638.675c-0.426-0.212-1.062-0.318-1.807-0.318c-1.169,0-1.912,0.425-1.912,1.381l0,0
			c0,0.744,0.637,1.169,1.487,1.169c1.274,0,2.125-0.744,2.125-1.7v-0.531H330.65z"/>
		<path fill="#FFFFFF" d="M338.831,642.713c-1.7,0-2.868-0.638-2.868-2.976v-4.675h-1.169v-2.338h1.169v-2.55h2.762v2.55h2.338
			v2.338h-2.338v4.144c0,0.638,0.319,0.956,0.851,0.956s0.956-0.105,1.381-0.318v2.231
			C340.531,642.5,339.787,642.713,338.831,642.713z"/>
		<path fill="#FFFFFF" d="M343.188,631.769v-2.443h2.869v2.443H343.188z M343.294,642.606v-9.775h2.763v9.775H343.294z"/>
		<path fill="#FFFFFF" d="M353.494,642.818c-3.082,0-5.312-2.23-5.312-5.1l0,0c0-2.763,2.23-5.1,5.312-5.1
			c3.081,0,5.312,2.23,5.312,5.1l0,0C358.807,640.481,356.469,642.818,353.494,642.818z M356.044,637.719
			c0-1.487-1.062-2.656-2.55-2.656c-1.594,0-2.551,1.275-2.551,2.656l0,0c0,1.487,1.062,2.656,2.551,2.656
			C355.088,640.375,356.044,639.206,356.044,637.719L356.044,637.719z"/>
		<path fill="#FFFFFF" d="M366.987,642.606v-5.419c0-1.275-0.638-2.019-1.7-2.019s-1.699,0.638-1.699,2.019v5.419h-2.763v-9.775
			h2.763v1.382c0.637-0.851,1.487-1.594,2.868-1.594c2.125,0,3.294,1.381,3.294,3.612v6.375H366.987z"/>
		<path fill="#FFFFFF" d="M377.825,632.193v-2.443h8.606v2.125l-3.188,3.081c1.699,0.319,3.399,1.169,3.399,3.612
			c0,2.444-1.7,4.25-4.568,4.25c-2.338,0-3.932-0.956-4.994-2.23l1.913-1.807c0.85,0.956,1.806,1.487,3.081,1.487
			c1.062,0,1.806-0.638,1.806-1.594c0-1.062-0.85-1.594-2.55-1.594h-1.169l-0.425-1.806l3.081-3.082H377.825L377.825,632.193z"/>
	</g>
	
		<line fill="none" stroke="#FFFFFF" stroke-width="1.9192" stroke-miterlimit="10" x1="269.875" y1="648.557" x2="386.537" y2="648.557"/>
	<g>
		<path fill="#FFFFFF" d="M175.95,312.487v-5.844l-2.55,3.825l0,0l-2.444-3.719v5.737h-2.019v-8.925h2.125l2.337,3.825l2.337-3.825
			h2.125v8.925H175.95z"/>
		<path fill="#FFFFFF" d="M183.175,312.594c-2.125,0-3.719-1.594-3.719-3.506l0,0c0-1.913,1.594-3.506,3.719-3.506
			s3.719,1.594,3.719,3.506l0,0C186.894,311,185.3,312.594,183.175,312.594z M184.981,309.087c0-0.956-0.744-1.913-1.807-1.913
			s-1.806,0.85-1.806,1.913l0,0c0,0.957,0.744,1.913,1.806,1.913C184.344,310.894,184.981,310.044,184.981,309.087L184.981,309.087z
			"/>
		<path fill="#FFFFFF" d="M192.312,307.494c-1.275,0-2.125,0.744-2.125,2.444v2.55h-1.913v-6.8h1.913v1.381
			c0.425-0.957,1.062-1.594,2.231-1.488L192.312,307.494L192.312,307.494z"/>
		<path fill="#FFFFFF" d="M195.925,312.594c-1.168,0-2.019-0.425-2.019-2.019v-3.188h-0.85v-1.7h0.85v-1.7h1.913v1.7h1.594v1.7
			h-1.594v2.869c0,0.425,0.212,0.637,0.637,0.637c0.319,0,0.638-0.106,0.957-0.212v1.594
			C196.987,312.381,196.562,312.594,195.925,312.594z"/>
		<path fill="#FFFFFF" d="M201.769,314.506c-1.062,0-2.125-0.212-2.975-0.744l0.637-1.488c0.744,0.425,1.381,0.638,2.337,0.638
			c1.275,0,1.913-0.638,1.913-1.913v-0.319c-0.531,0.638-1.168,1.062-2.231,1.062c-1.594,0-3.082-1.168-3.082-3.188l0,0
			c0-2.019,1.488-3.188,3.082-3.188c1.062,0,1.7,0.425,2.231,1.062v-0.85h1.913v5.312
			C205.594,313.444,204.319,314.506,201.769,314.506z M203.681,308.663c0-0.957-0.744-1.594-1.7-1.594c-0.957,0-1.7,0.637-1.7,1.594
			l0,0c0,0.956,0.744,1.594,1.7,1.594C202.938,310.256,203.681,309.619,203.681,308.663L203.681,308.663z"/>
		<path fill="#FFFFFF" d="M211.331,312.487v-0.744c-0.425,0.531-1.168,0.85-2.019,0.85c-1.275,0-2.337-0.744-2.337-2.125l0,0
			c0-1.487,1.168-2.231,2.762-2.231c0.638,0,1.169,0.106,1.7,0.319v-0.106c0-0.85-0.531-1.275-1.487-1.275
			c-0.744,0-1.275,0.106-1.913,0.319l-0.531-1.487c0.744-0.319,1.487-0.531,2.656-0.531c2.125,0,3.081,1.062,3.081,2.975v3.931
			h-1.913V312.487z M211.331,309.725c-0.318-0.106-0.744-0.212-1.275-0.212c-0.85,0-1.381,0.318-1.381,0.956l0,0
			c0,0.531,0.425,0.85,1.062,0.85c0.957,0,1.488-0.531,1.488-1.169v-0.425H211.331z"/>
		<path fill="#FFFFFF" d="M217.919,314.506c-1.062,0-2.125-0.212-2.975-0.744l0.637-1.488c0.744,0.425,1.381,0.638,2.338,0.638
			c1.275,0,1.912-0.638,1.912-1.913v-0.319c-0.531,0.638-1.168,1.062-2.231,1.062c-1.594,0-3.082-1.168-3.082-3.188l0,0
			c0-2.019,1.488-3.188,3.082-3.188c1.062,0,1.7,0.425,2.231,1.062v-0.85h1.913v5.312
			C221.744,313.444,220.469,314.506,217.919,314.506z M219.831,308.663c0-0.957-0.744-1.594-1.7-1.594c-0.957,0-1.7,0.637-1.7,1.594
			l0,0c0,0.956,0.744,1.594,1.7,1.594C219.087,310.256,219.831,309.619,219.831,308.663L219.831,308.663z"/>
		<path fill="#FFFFFF" d="M229.819,309.725h-4.781c0.212,0.85,0.85,1.381,1.7,1.381c0.638,0,1.169-0.213,1.7-0.744l1.062,0.957
			c-0.638,0.744-1.594,1.275-2.763,1.275c-2.019,0-3.612-1.487-3.612-3.506l0,0c0-1.913,1.381-3.506,3.4-3.506
			c2.231,0,3.294,1.807,3.294,3.719l0,0C229.819,309.406,229.819,309.513,229.819,309.725z M226.525,307.069
			c-0.85,0-1.275,0.531-1.487,1.487h2.869C227.8,307.6,227.375,307.069,226.525,307.069z"/>
	</g>
	<g>
		<path fill="#FFFFFF" d="M426.487,306.219H425v2.656h-1.912v-8.925h3.612c2.125,0,3.399,1.275,3.399,3.081l0,0
			C430.1,305.156,428.506,306.219,426.487,306.219z M428.081,303.138c0-0.85-0.638-1.381-1.594-1.381H425v2.762h1.594
			C427.55,304.413,428.081,303.881,428.081,303.138L428.081,303.138z"/>
		<path fill="#FFFFFF" d="M435.412,303.987c-1.274,0-2.125,0.744-2.125,2.444v2.55h-1.912v-6.8h1.912v1.381
			c0.426-0.956,1.062-1.594,2.231-1.487L435.412,303.987L435.412,303.987z"/>
		<path fill="#FFFFFF" d="M436.688,301.331v-1.7h2.019v1.7H436.688z M436.794,308.875v-6.8h1.912v6.8H436.794z"/>
		<path fill="#FFFFFF" d="M444.869,308.875v-3.825c0-0.956-0.426-1.381-1.169-1.381c-0.744,0-1.169,0.425-1.169,1.381v3.825h-1.912
			v-6.8h1.912v0.956c0.425-0.531,1.062-1.062,2.019-1.062c1.487,0,2.338,0.956,2.338,2.55v4.463h-2.019V308.875z"/>
		<path fill="#FFFFFF" d="M451.669,309.087c-2.019,0-3.507-1.594-3.507-3.506l0,0c0-1.912,1.488-3.506,3.613-3.506
			c1.274,0,2.125,0.425,2.762,1.168l-1.168,1.275c-0.426-0.425-0.851-0.744-1.594-0.744c-0.957,0-1.7,0.85-1.7,1.913l0,0
			c0,1.062,0.638,1.913,1.7,1.913c0.637,0,1.062-0.319,1.594-0.744l1.168,1.168C453.9,308.556,453.05,309.087,451.669,309.087z"/>
		<path fill="#FFFFFF" d="M455.812,301.331v-1.7h2.019v1.7H455.812z M455.812,308.875v-6.8h1.912v6.8H455.812z"/>
		<path fill="#FFFFFF" d="M463.675,308.981c-1.062,0-1.7-0.425-2.125-1.062v2.975h-1.912v-8.818h1.912v0.956
			c0.425-0.638,1.169-1.062,2.125-1.062c1.594,0,3.081,1.275,3.081,3.506l0,0C466.756,307.812,465.269,308.981,463.675,308.981z
			 M464.844,305.475c0-1.169-0.744-1.913-1.7-1.913s-1.7,0.744-1.7,1.913l0,0c0,1.168,0.744,1.913,1.7,1.913
			S464.844,306.644,464.844,305.475L464.844,305.475z"/>
		<path fill="#FFFFFF" d="M468.35,308.875v-9.35h1.913v9.35H468.35z"/>
		<path fill="#FFFFFF" d="M478.443,306.112h-4.781c0.213,0.85,0.851,1.381,1.7,1.381c0.638,0,1.169-0.212,1.7-0.744l1.062,0.956
			c-0.638,0.744-1.594,1.275-2.763,1.275c-2.019,0-3.612-1.488-3.612-3.506l0,0c0-1.913,1.381-3.506,3.4-3.506
			c2.23,0,3.293,1.806,3.293,3.719l0,0C478.443,305.9,478.443,306.006,478.443,306.112z M475.15,303.456
			c-0.851,0-1.275,0.531-1.488,1.488h2.869C476.425,304.094,475.894,303.456,475.15,303.456z"/>
		<path fill="#FFFFFF" d="M489.919,309.087l-1.062-1.062c-0.744,0.638-1.594,0.957-2.656,0.957c-1.7,0-2.976-0.957-2.976-2.55
			c0-1.168,0.638-1.913,1.7-2.444c-0.425-0.637-0.638-1.168-0.638-1.806c0-1.275,0.957-2.337,2.656-2.337
			c1.488,0,2.551,0.956,2.551,2.231c0,1.168-0.744,1.912-1.913,2.337l1.169,1.168c0.318-0.425,0.638-0.956,0.85-1.487l1.488,0.744
			c-0.319,0.638-0.744,1.275-1.169,1.913l1.274,1.275L489.919,309.087z M486.094,305.156c-0.638,0.319-0.85,0.744-0.85,1.169
			c0,0.637,0.531,1.062,1.274,1.062c0.425,0,0.851-0.213,1.275-0.531L486.094,305.156z M487.05,301.331
			c-0.531,0-0.85,0.319-0.85,0.957c0,0.425,0.106,0.744,0.531,1.168c0.743-0.318,1.169-0.637,1.169-1.168
			C487.9,301.65,487.581,301.331,487.05,301.331z"/>
		<path fill="#FFFFFF" d="M433.182,324.175v-8.925h1.912v8.925H433.182z"/>
		<path fill="#FFFFFF" d="M441.469,324.175v-3.825c0-0.957-0.425-1.381-1.169-1.381c-0.743,0-1.169,0.425-1.169,1.381v3.825h-1.912
			v-6.8h1.912v0.956c0.426-0.531,1.062-1.062,2.02-1.062c1.487,0,2.337,0.957,2.337,2.55v4.462h-2.019V324.175z"/>
		<path fill="#FFFFFF" d="M447.419,324.281c-1.169,0-2.019-0.425-2.019-2.019v-3.188h-0.851v-1.7h0.851v-1.7h1.912v1.7h1.594v1.7
			h-1.594v2.869c0,0.425,0.213,0.637,0.638,0.637c0.318,0,0.638-0.106,0.956-0.212v1.594
			C448.588,324.175,448.057,324.281,447.419,324.281z"/>
		<path fill="#FFFFFF" d="M456.557,321.413h-4.781c0.212,0.85,0.85,1.381,1.699,1.381c0.638,0,1.169-0.213,1.7-0.744l1.062,0.957
			c-0.638,0.744-1.594,1.275-2.763,1.275c-2.019,0-3.612-1.487-3.612-3.506l0,0c0-1.913,1.382-3.506,3.4-3.506
			c2.231,0,3.294,1.807,3.294,3.719l0,0C456.557,321.2,456.557,321.306,456.557,321.413z M453.263,318.756
			c-0.851,0-1.275,0.531-1.487,1.487h2.868C454.644,319.394,454.112,318.756,453.263,318.756z"/>
		<path fill="#FFFFFF" d="M462.081,319.288c-1.274,0-2.125,0.744-2.125,2.444v2.55h-1.912v-6.906h1.912v1.381
			c0.425-0.957,1.062-1.594,2.231-1.488L462.081,319.288L462.081,319.288z"/>
		<path fill="#FFFFFF" d="M469.519,321.413h-4.781c0.213,0.85,0.851,1.381,1.7,1.381c0.638,0,1.169-0.213,1.7-0.744l1.062,0.957
			c-0.638,0.744-1.594,1.275-2.763,1.275c-2.019,0-3.612-1.487-3.612-3.506l0,0c0-1.913,1.381-3.506,3.399-3.506
			c2.231,0,3.294,1.807,3.294,3.719l0,0C469.519,321.2,469.519,321.306,469.519,321.413z M466.225,318.756
			c-0.85,0-1.274,0.531-1.487,1.487h2.869C467.5,319.394,467.075,318.756,466.225,318.756z"/>
		<path fill="#FFFFFF" d="M473.344,324.281c-0.956,0-2.019-0.319-2.975-1.062l0.85-1.275c0.744,0.531,1.487,0.85,2.125,0.85
			c0.531,0,0.85-0.213,0.85-0.531l0,0c0-0.425-0.637-0.531-1.381-0.744c-0.956-0.318-2.019-0.744-2.019-2.019l0,0
			c0-1.381,1.169-2.125,2.55-2.125c0.85,0,1.807,0.319,2.55,0.744l-0.743,1.381c-0.638-0.425-1.382-0.638-1.807-0.638
			s-0.744,0.213-0.744,0.425l0,0c0,0.425,0.638,0.531,1.382,0.85c0.956,0.318,2.019,0.744,2.019,2.019l0,0
			C476,323.644,474.831,324.281,473.344,324.281z"/>
		<path fill="#FFFFFF" d="M479.612,324.281c-1.169,0-2.019-0.425-2.019-2.019v-3.188h-0.85v-1.7h0.85v-1.7h1.912v1.7h1.594v1.7
			h-1.594v2.869c0,0.425,0.213,0.637,0.638,0.637c0.319,0,0.638-0.106,0.956-0.212v1.594
			C480.675,324.175,480.25,324.281,479.612,324.281z"/>
	</g>
	<g>
		<path fill="#FFFFFF" d="M175.95,511.281v-5.844l-2.55,3.825l0,0l-2.444-3.719v5.737h-2.019v-8.925h2.125l2.337,3.719l2.337-3.719
			h2.125v8.925H175.95z"/>
		<path fill="#FFFFFF" d="M183.175,511.388c-2.125,0-3.719-1.594-3.719-3.507l0,0c0-1.912,1.594-3.506,3.719-3.506
			s3.719,1.594,3.719,3.506l0,0C186.894,509.794,185.3,511.388,183.175,511.388z M184.981,507.881c0-0.956-0.744-1.912-1.807-1.912
			s-1.806,0.85-1.806,1.912l0,0c0,0.957,0.744,1.913,1.806,1.913C184.344,509.688,184.981,508.838,184.981,507.881L184.981,507.881z
			"/>
		<path fill="#FFFFFF" d="M192.312,506.287c-1.275,0-2.125,0.744-2.125,2.444v2.55h-1.913v-6.906h1.913v1.381
			c0.425-0.956,1.062-1.594,2.231-1.487L192.312,506.287L192.312,506.287z"/>
		<path fill="#FFFFFF" d="M195.925,511.388c-1.168,0-2.019-0.425-2.019-2.019v-3.188h-0.85v-1.807h0.85v-1.7h1.913v1.7h1.594v1.7
			h-1.594v2.868c0,0.426,0.212,0.638,0.637,0.638c0.319,0,0.638-0.106,0.957-0.212v1.594
			C196.987,511.175,196.562,511.388,195.925,511.388z"/>
		<path fill="#FFFFFF" d="M201.769,513.3c-1.062,0-2.125-0.212-2.975-0.743l0.637-1.488c0.744,0.426,1.381,0.638,2.337,0.638
			c1.275,0,1.913-0.638,1.913-1.912v-0.319c-0.531,0.638-1.168,1.062-2.231,1.062c-1.594,0-3.082-1.168-3.082-3.188l0,0
			c0-2.019,1.488-3.188,3.082-3.188c1.062,0,1.7,0.426,2.231,1.062v-0.85h1.913v5.312C205.594,512.237,204.319,513.3,201.769,513.3z
			 M203.681,507.456c0-0.956-0.744-1.594-1.7-1.594c-0.957,0-1.7,0.638-1.7,1.594l0,0c0,0.956,0.744,1.594,1.7,1.594
			C202.938,509.05,203.681,508.412,203.681,507.456L203.681,507.456z"/>
		<path fill="#FFFFFF" d="M211.331,511.281v-0.744c-0.425,0.531-1.168,0.851-2.019,0.851c-1.275,0-2.337-0.744-2.337-2.125l0,0
			c0-1.487,1.168-2.231,2.762-2.231c0.638,0,1.169,0.106,1.7,0.318v-0.105c0-0.851-0.531-1.275-1.487-1.275
			c-0.744,0-1.275,0.106-1.913,0.318l-0.531-1.487c0.744-0.318,1.487-0.531,2.656-0.531c2.125,0,3.081,1.062,3.081,2.976v3.931
			h-1.913V511.281z M211.331,508.519c-0.318-0.106-0.744-0.212-1.275-0.212c-0.85,0-1.381,0.318-1.381,0.956l0,0
			c0,0.531,0.425,0.85,1.062,0.85c0.957,0,1.488-0.531,1.488-1.169v-0.425H211.331z"/>
		<path fill="#FFFFFF" d="M217.919,513.3c-1.062,0-2.125-0.212-2.975-0.743l0.637-1.488c0.744,0.426,1.381,0.638,2.338,0.638
			c1.275,0,1.912-0.638,1.912-1.912v-0.319c-0.531,0.638-1.168,1.062-2.231,1.062c-1.594,0-3.082-1.168-3.082-3.188l0,0
			c0-2.019,1.488-3.188,3.082-3.188c1.062,0,1.7,0.426,2.231,1.062v-0.85h1.913v5.312C221.744,512.237,220.469,513.3,217.919,513.3z
			 M219.831,507.456c0-0.956-0.744-1.594-1.7-1.594c-0.957,0-1.7,0.638-1.7,1.594l0,0c0,0.956,0.744,1.594,1.7,1.594
			C219.087,509.05,219.831,508.412,219.831,507.456L219.831,507.456z"/>
		<path fill="#FFFFFF" d="M229.819,508.519h-4.781c0.212,0.851,0.85,1.382,1.7,1.382c0.638,0,1.169-0.213,1.7-0.744l1.062,0.956
			c-0.638,0.744-1.594,1.275-2.763,1.275c-2.019,0-3.612-1.487-3.612-3.507l0,0c0-1.912,1.381-3.506,3.4-3.506
			c2.231,0,3.294,1.807,3.294,3.719l0,0C229.819,508.2,229.819,508.307,229.819,508.519z M226.525,505.862
			c-0.85,0-1.275,0.531-1.487,1.487h2.869C227.8,506.394,227.375,505.862,226.525,505.862z"/>
	</g>
	<g>
		<path fill="#FFFFFF" d="M426.487,505.013H425v2.656h-1.912v-8.925h3.612c2.125,0,3.399,1.274,3.399,3.081l0,0
			C430.1,503.95,428.506,505.013,426.487,505.013z M428.081,501.825c0-0.851-0.638-1.382-1.594-1.382H425v2.763h1.594
			C427.55,503.206,428.081,502.675,428.081,501.825L428.081,501.825z"/>
		<path fill="#FFFFFF" d="M435.412,502.675c-1.274,0-2.125,0.744-2.125,2.444v2.55h-1.912v-6.8h1.912v1.381
			c0.426-0.956,1.062-1.594,2.231-1.487L435.412,502.675L435.412,502.675z"/>
		<path fill="#FFFFFF" d="M436.688,500.125v-1.7h2.019v1.7H436.688z M436.794,507.669v-6.8h1.912v6.8H436.794z"/>
		<path fill="#FFFFFF" d="M444.869,507.669v-3.825c0-0.956-0.426-1.381-1.169-1.381c-0.744,0-1.169,0.425-1.169,1.381v3.825h-1.912
			v-6.8h1.912v0.956c0.425-0.531,1.062-1.062,2.019-1.062c1.487,0,2.338,0.956,2.338,2.55v4.463h-2.019V507.669z"/>
		<path fill="#FFFFFF" d="M451.669,507.775c-2.019,0-3.507-1.594-3.507-3.507l0,0c0-1.912,1.488-3.506,3.613-3.506
			c1.274,0,2.125,0.425,2.762,1.169l-1.168,1.274c-0.426-0.425-0.851-0.743-1.594-0.743c-0.957,0-1.7,0.85-1.7,1.912l0,0
			c0,1.062,0.638,1.912,1.7,1.912c0.637,0,1.062-0.318,1.594-0.743l1.168,1.169C453.9,507.244,453.05,507.775,451.669,507.775z"/>
		<path fill="#FFFFFF" d="M455.812,500.125v-1.7h2.019v1.7H455.812z M455.812,507.669v-6.8h1.912v6.8H455.812z"/>
		<path fill="#FFFFFF" d="M463.675,507.775c-1.062,0-1.7-0.426-2.125-1.062v2.975h-1.912v-8.818h1.912v0.956
			c0.425-0.638,1.169-1.062,2.125-1.062c1.594,0,3.081,1.274,3.081,3.506l0,0C466.756,506.5,465.269,507.775,463.675,507.775z
			 M464.844,504.269c0-1.169-0.744-1.912-1.7-1.912s-1.7,0.743-1.7,1.912l0,0c0,1.169,0.744,1.913,1.7,1.913
			S464.844,505.438,464.844,504.269L464.844,504.269z"/>
		<path fill="#FFFFFF" d="M468.35,507.669v-9.351h1.913v9.351H468.35z"/>
		<path fill="#FFFFFF" d="M478.443,504.906h-4.781c0.213,0.85,0.851,1.381,1.7,1.381c0.638,0,1.169-0.212,1.7-0.743l1.062,0.956
			c-0.638,0.744-1.594,1.275-2.763,1.275c-2.019,0-3.612-1.488-3.612-3.507l0,0c0-1.912,1.381-3.506,3.4-3.506
			c2.23,0,3.293,1.806,3.293,3.719l0,0C478.443,504.588,478.443,504.693,478.443,504.906z M475.15,502.25
			c-0.851,0-1.275,0.531-1.488,1.487h2.869C476.425,502.888,475.894,502.25,475.15,502.25z"/>
		<path fill="#FFFFFF" d="M489.919,507.881l-1.062-1.062c-0.744,0.638-1.594,0.957-2.656,0.957c-1.7,0-2.976-0.957-2.976-2.551
			c0-1.168,0.638-1.912,1.7-2.443c-0.425-0.638-0.638-1.169-0.638-1.807c0-1.274,0.957-2.337,2.656-2.337
			c1.488,0,2.551,0.956,2.551,2.231c0,1.168-0.744,1.912-1.913,2.337l1.169,1.169c0.318-0.425,0.638-0.956,0.85-1.487l1.488,0.743
			c-0.319,0.638-0.744,1.275-1.169,1.913l1.274,1.274L489.919,507.881z M486.094,503.95c-0.638,0.318-0.85,0.743-0.85,1.169
			c0,0.637,0.531,1.062,1.274,1.062c0.425,0,0.851-0.213,1.275-0.531L486.094,503.95z M487.05,500.125
			c-0.531,0-0.85,0.318-0.85,0.956c0,0.425,0.106,0.744,0.531,1.169c0.743-0.318,1.169-0.638,1.169-1.169
			C487.9,500.443,487.581,500.125,487.05,500.125z"/>
		<path fill="#FFFFFF" d="M433.182,522.969v-8.925h1.912v8.925H433.182z"/>
		<path fill="#FFFFFF" d="M441.469,522.969v-3.825c0-0.956-0.425-1.381-1.169-1.381c-0.743,0-1.169,0.425-1.169,1.381v3.825h-1.912
			v-6.8h1.912v0.956c0.426-0.531,1.062-1.062,2.02-1.062c1.487,0,2.337,0.956,2.337,2.55v4.463h-2.019V522.969z"/>
		<path fill="#FFFFFF" d="M447.419,523.075c-1.169,0-2.019-0.425-2.019-2.019v-3.188h-0.851v-1.7h0.851v-1.7h1.912v1.7h1.594v1.7
			h-1.594v2.868c0,0.425,0.213,0.638,0.638,0.638c0.318,0,0.638-0.106,0.956-0.213v1.594
			C448.588,522.969,448.057,523.075,447.419,523.075z"/>
		<path fill="#FFFFFF" d="M456.557,520.206h-4.781c0.212,0.851,0.85,1.382,1.699,1.382c0.638,0,1.169-0.213,1.7-0.744l1.062,0.956
			c-0.638,0.744-1.594,1.275-2.763,1.275c-2.019,0-3.612-1.487-3.612-3.507l0,0c0-1.912,1.382-3.506,3.4-3.506
			c2.231,0,3.294,1.807,3.294,3.719l0,0C456.557,519.888,456.557,519.994,456.557,520.206z M453.263,517.55
			c-0.851,0-1.275,0.531-1.487,1.487h2.868C454.644,518.188,454.112,517.55,453.263,517.55z"/>
		<path fill="#FFFFFF" d="M462.081,517.975c-1.274,0-2.125,0.744-2.125,2.444v2.55h-1.912v-6.8h1.912v1.381
			c0.425-0.956,1.062-1.594,2.231-1.487L462.081,517.975L462.081,517.975z"/>
		<path fill="#FFFFFF" d="M469.519,520.206h-4.781c0.213,0.851,0.851,1.382,1.7,1.382c0.638,0,1.169-0.213,1.7-0.744l1.062,0.956
			c-0.638,0.744-1.594,1.275-2.763,1.275c-2.019,0-3.612-1.487-3.612-3.507l0,0c0-1.912,1.381-3.506,3.399-3.506
			c2.231,0,3.294,1.807,3.294,3.719l0,0C469.519,519.888,469.519,519.994,469.519,520.206z M466.225,517.55
			c-0.85,0-1.274,0.531-1.487,1.487h2.869C467.5,518.188,467.075,517.55,466.225,517.55z"/>
		<path fill="#FFFFFF" d="M473.344,523.075c-0.956,0-2.019-0.319-2.975-1.062l0.85-1.275c0.744,0.531,1.487,0.851,2.125,0.851
			c0.531,0,0.85-0.213,0.85-0.531l0,0c0-0.426-0.637-0.531-1.381-0.744c-0.956-0.318-2.019-0.744-2.019-2.019l0,0
			c0-1.382,1.169-2.125,2.55-2.125c0.85,0,1.807,0.318,2.55,0.743l-0.743,1.382c-0.638-0.425-1.382-0.638-1.807-0.638
			s-0.744,0.213-0.744,0.425l0,0c0,0.425,0.638,0.531,1.382,0.851c0.956,0.318,2.019,0.743,2.019,2.019l0,0
			C476,522.438,474.831,523.075,473.344,523.075z"/>
		<path fill="#FFFFFF" d="M479.612,523.075c-1.169,0-2.019-0.425-2.019-2.019v-3.188h-0.85v-1.7h0.85v-1.7h1.912v1.7h1.594v1.7
			h-1.594v2.868c0,0.425,0.213,0.638,0.638,0.638c0.319,0,0.638-0.106,0.956-0.213v1.594
			C480.675,522.969,480.25,523.075,479.612,523.075z"/>
	</g>
	<path fill="none" stroke="#FFFFFF" stroke-miterlimit="10" d="M-396.312,61.312"/>
	<path fill="none" stroke="#000000" stroke-miterlimit="10" d="M268.812,167.244"/>
	<path fill="none" stroke="#FFFFFF" stroke-miterlimit="10" d="M-396.312,61.312"/>
	<path fill="none" stroke="#FFFFFF" stroke-miterlimit="10" d="M242.356,649.619"/>
</g>
<g id="Layer_4">
	<polygon fill="none" stroke="#FFFFFF" stroke-width="3" stroke-miterlimit="10" points="189.55,613.388 124.844,613.388 
		124.1,163.206 270.619,163.206 270.619,171.388 132.175,171.388 132.388,606.269 189.55,606.269 189.55,591.606 222.594,610.625 
		189.656,629.644 	"/>
	<g>
		<path fill="#FFFFFF" d="M66.087,391.856h-3.506v-8.925h3.506c2.763,0,4.781,1.913,4.781,4.462l0,0
			C70.763,389.944,68.85,391.856,66.087,391.856z M68.744,387.394c0-1.594-1.062-2.656-2.656-2.656H64.6v5.419h1.487
			C67.681,390.156,68.744,388.987,68.744,387.394L68.744,387.394z"/>
		<path fill="#FFFFFF" d="M78.625,389.094h-4.781c0.212,0.85,0.85,1.381,1.7,1.381c0.637,0,1.168-0.212,1.7-0.744l1.062,0.956
			c-0.637,0.744-1.594,1.275-2.762,1.275c-2.019,0-3.613-1.487-3.613-3.506l0,0c0-1.912,1.381-3.506,3.4-3.506
			c2.231,0,3.294,1.806,3.294,3.719l0,0C78.731,388.881,78.731,388.987,78.625,389.094z M75.331,386.438
			c-0.85,0-1.275,0.531-1.487,1.487h2.869C76.712,387.075,76.181,386.438,75.331,386.438z"/>
		<path fill="#FFFFFF" d="M84.15,391.856v-0.744c-0.425,0.531-1.168,0.85-2.019,0.85c-1.275,0-2.337-0.744-2.337-2.125l0,0
			c0-1.487,1.168-2.231,2.762-2.231c0.638,0,1.169,0.106,1.7,0.318v-0.106c0-0.85-0.531-1.275-1.488-1.275
			c-0.744,0-1.275,0.106-1.912,0.318l-0.531-1.487c0.744-0.319,1.487-0.531,2.656-0.531c2.125,0,3.081,1.062,3.081,2.975v3.931
			H84.15V391.856z M84.15,389.094c-0.319-0.106-0.744-0.212-1.275-0.212c-0.85,0-1.381,0.319-1.381,0.956l0,0
			c0,0.531,0.425,0.85,1.062,0.85c0.957,0,1.488-0.531,1.488-1.169v-0.425H84.15z"/>
		<path fill="#FFFFFF" d="M89.888,391.962c-1.169,0-2.019-0.425-2.019-2.019v-3.188h-0.744v-1.7h0.85v-1.7h1.913v1.7h1.594v1.7
			h-1.594v2.869c0,0.425,0.212,0.638,0.637,0.638c0.319,0,0.638-0.106,0.957-0.213v1.594
			C91.056,391.856,90.631,391.962,89.888,391.962z"/>
		<path fill="#FFFFFF" d="M97.219,391.856v-3.825c0-0.956-0.425-1.381-1.169-1.381c-0.744,0-1.168,0.425-1.168,1.381v3.825h-1.913
			v-9.35h1.913v3.4c0.425-0.531,1.062-1.062,2.019-1.062c1.488,0,2.337,0.956,2.337,2.55v4.463H97.219L97.219,391.856z"/>
		<path fill="#FFFFFF" d="M62.688,407.156h-4.25v-8.925h4.144c1.807,0,2.975,0.956,2.975,2.337l0,0c0,0.957-0.531,1.594-1.168,1.913
			c1.062,0.425,1.7,0.956,1.7,2.231l0,0C65.981,406.412,64.706,407.156,62.688,407.156z M63.538,400.888
			c0-0.638-0.425-0.956-1.275-0.956H60.35v1.912h1.806C63.006,401.844,63.538,401.631,63.538,400.888L63.538,400.888z M64.069,404.5
			c0-0.638-0.425-0.956-1.488-0.956H60.35v1.912h2.337C63.538,405.456,64.069,405.138,64.069,404.5L64.069,404.5z"/>
		<path fill="#FFFFFF" d="M73.737,404.394h-4.675c0.212,0.851,0.85,1.382,1.7,1.382c0.637,0,1.168-0.213,1.7-0.744l1.062,0.956
			c-0.637,0.744-1.594,1.275-2.762,1.275c-2.019,0-3.613-1.487-3.613-3.507l0,0c0-1.912,1.381-3.506,3.4-3.506
			c2.231,0,3.294,1.807,3.294,3.719l0,0C73.844,404.182,73.737,404.287,73.737,404.394z M70.444,401.737
			c-0.85,0-1.275,0.531-1.488,1.487h2.869C71.825,402.375,71.294,401.737,70.444,401.737z"/>
		<path fill="#FFFFFF" d="M79.581,407.156v-3.825c0-0.956-0.425-1.381-1.168-1.381s-1.169,0.425-1.169,1.381v3.825h-1.913v-6.8
			h1.913v0.956c0.425-0.531,1.062-1.062,2.019-1.062c1.487,0,2.337,0.956,2.337,2.55v4.463h-2.019V407.156z"/>
		<path fill="#FFFFFF" d="M89.569,404.394h-4.781c0.212,0.851,0.85,1.382,1.7,1.382c0.638,0,1.169-0.213,1.7-0.744l1.062,0.956
			c-0.638,0.744-1.594,1.275-2.763,1.275c-2.019,0-3.612-1.487-3.612-3.507l0,0c0-1.912,1.381-3.506,3.4-3.506
			c2.231,0,3.294,1.807,3.294,3.719l0,0C89.569,404.182,89.569,404.287,89.569,404.394z M86.275,401.737
			c-0.85,0-1.275,0.531-1.487,1.487h2.869C87.55,402.375,87.019,401.737,86.275,401.737z"/>
		<path fill="#FFFFFF" d="M93.925,399.4c-0.425,0-0.744,0.212-0.744,0.743v0.319h1.594v1.594h-1.594v5.206h-1.806v-5.206h-0.85
			v-1.594h0.85v-0.426c0-1.487,0.744-2.23,2.125-2.23c0.638,0,1.062,0.105,1.381,0.212v1.594
			C94.562,399.506,94.244,399.4,93.925,399.4z"/>
		<path fill="#FFFFFF" d="M95.944,399.612v-1.7h2.019v1.7H95.944z M95.944,407.156v-6.8h1.913v6.8H95.944z"/>
		<path fill="#FFFFFF" d="M102,407.263c-1.169,0-2.019-0.425-2.019-2.019v-3.188h-0.85v-1.7h0.85v-1.7H102v1.7h1.594v1.7H102v2.868
			c0,0.425,0.212,0.638,0.638,0.638c0.318,0,0.637-0.106,0.956-0.213v1.594C103.169,407.156,102.638,407.263,102,407.263z"/>
	</g>
</g>
<g id="Layer_5">
</g>
</svg>
