<?xml version="1.0" encoding="utf-8"?>
<!-- Generator: Adobe Illustrator 19.1.0, SVG Export Plug-In . SVG Version: 6.00 Build 0)  -->
<svg version="1.1" id="Layer_1" xmlns="http://www.w3.org/2000/svg" xmlns:xlink="http://www.w3.org/1999/xlink" x="0px" y="0px"
	 viewBox="0 0 216 216" style="enable-background:new 0 0 216 216;" xml:space="preserve">
<style type="text/css">
	.st0{opacity:0.46;}
	.st1{fill:#FFFFFF;}
	.st2{font-family:'GothamMedium';}
	.st3{font-size:57.0025px;}
</style>
<g class="st0">
	<path class="st1" d="M53,122c-5.8,0-10.5,4.7-10.5,10.5c0,5.8,4.7,10.5,10.5,10.5c5.8,0,10.5-4.7,10.5-10.5
		C63.5,126.7,58.8,122,53,122L53,122z"/>
	<path class="st1" d="M69.4,159.7c0-6.5-5.2-11.7-11.7-11.7h-9.4c-6.5,0-11.7,5.2-11.7,11.7v4.7h32.8V159.7z"/>
	<path class="st1" d="M166.9,122.1c-5.8,0-10.5,4.7-10.5,10.5c0,5.8,4.7,10.5,10.5,10.5c5.8,0,10.5-4.7,10.5-10.5
		C177.4,126.9,172.7,122.1,166.9,122.1L166.9,122.1z"/>
	<path class="st1" d="M183.3,159.8c0-6.5-5.2-11.7-11.7-11.7h-9.4c-6.5,0-11.7,5.2-11.7,11.7v4.7h32.8V159.8z"/>
	<path class="st1" d="M108.5,22.7c-5.8,0-10.5,4.7-10.5,10.5c0,5.8,4.7,10.5,10.5,10.5c5.8,0,10.5-4.7,10.5-10.5
		C119.1,27.5,114.4,22.7,108.5,22.7L108.5,22.7z"/>
	<path class="st1" d="M124.9,60.4c0-6.5-5.2-11.7-11.7-11.7h-9.4c-6.5,0-11.7,5.2-11.7,11.7v4.7h32.8V60.4z"/>
	<text transform="matrix(1 0 0 1 89.6286 136.4265)" class="st1 st2 st3">$</text>
	<path class="st1" d="M65.7,71c0,0-19.4,16.4-20.3,42l5.2,0c0,0-0.5-20,18.1-38l4.5,6.1l8.4-18.9l-20.6,2.1L65.7,71z"/>
	<path class="st1" d="M167.9,95.8c0,0-7-24.4-30-35.7l-2.2,4.8c0,0,18.4,7.7,27.3,32l-7.5,1.6l13.8,15.4l6.5-19.6L167.9,95.8z"/>
	<path class="st1" d="M94.1,179.3c0,0,24,8.1,46.4-4.4l-2.7-4.5c0,0-16.8,10.8-41.9,4.2l2.9-7.1l-20.5,2.6l12.5,16.5L94.1,179.3z"/>
</g>
</svg>
