<?xml version="1.0" encoding="utf-8"?>
<!-- Generator: Adobe Illustrator 16.2.1, SVG Export Plug-In . SVG Version: 6.00 Build 0)  -->
<!DOCTYPE svg PUBLIC "-//W3C//DTD SVG 1.1//EN" "http://www.w3.org/Graphics/SVG/1.1/DTD/svg11.dtd">
<svg version="1.1" id="Layer_1" xmlns="http://www.w3.org/2000/svg" xmlns:xlink="http://www.w3.org/1999/xlink" x="0px" y="0px"
	 width="612px" height="792px" viewBox="0 0 612 792" enable-background="new 0 0 612 792" xml:space="preserve">
<path fill="#FFFFFF" d="M395.711,341.805L395.711,341.805L395.711,341.805C394.974,341.805,394.974,341.805,395.711,341.805
	c-0.737,0-0.737,0-0.737,0l0,0l0,0H219.484c-2.949,0-4.424,1.475-4.424,4.424v99.543v0.736c0,0,0,0,0,0.738c0,0,0,0,0,0.737
	s0,0,0,0.737l0,0c0,0.736,0.737,0.736,1.475,1.475l0,0c0,0,0,0,0.737,0c0,0,0,0,0.737,0c0,0,0,0,0.737,0h0.737h175.489l0,0h0.737
	c0,0,0,0,0.737,0s0,0,0.737,0s0,0,0.737,0l0,0c0.737,0,0.737-0.738,1.475-1.475l0,0c0,0,0,0,0-0.737c0,0,0,0,0-0.737
	c0,0,0,0,0-0.738v-0.736v-99.543l0,0c0,0,0,0,0-0.737c0,0,0,0,0-0.737c0,0,0,0,0-0.737s0,0,0-0.737l0,0c0,0,0,0,0-0.737l0,0l0,0l0,0
	l0,0l0,0l0,0C396.448,342.542,396.448,341.805,395.711,341.805C396.448,341.805,395.711,341.805,395.711,341.805L395.711,341.805z
	 M382.438,349.916L382.438,349.916l-44.979,36.13c-0.737,0-0.737,0.737-1.475,0.737c0,0,0,0-0.737,0.737l-30.231,24.333l0,0
	l-28.756-23.596l0,0l-0.737-0.737l-44.979-36.868l0,0h151.894V349.916z M223.171,363.925v-8.111l43.504,36.13l-43.504,43.504
	V363.925z M384.65,441.347H229.808l0,0l44.24-44.241l29.494,24.333l0,0c0,0,0,0,0.737,0l0,0h0.737l0,0h0.738l0,0h0.737l0,0h0.737
	l0,0h0.738l0,0l30.969-25.07l0,0L384.65,441.347L384.65,441.347z M390.549,435.448l-44.978-44.979l44.978-36.13V435.448z"/>
<circle fill="none" stroke="#FFFFFF" stroke-miterlimit="10" cx="304.914" cy="393.145" r="132.996"/>
</svg>
