<?xml version="1.0" encoding="utf-8"?>
<!-- Generator: Adobe Illustrator 16.2.1, SVG Export Plug-In . SVG Version: 6.00 Build 0)  -->
<!DOCTYPE svg PUBLIC "-//W3C//DTD SVG 1.1//EN" "http://www.w3.org/Graphics/SVG/1.1/DTD/svg11.dtd">
<svg version="1.1" id="Layer_1" xmlns="http://www.w3.org/2000/svg" xmlns:xlink="http://www.w3.org/1999/xlink" x="0px" y="0px"
	 width="612px" height="792px" viewBox="0 0 612 792" enable-background="new 0 0 612 792" xml:space="preserve">
<path fill="#FFFFFF" stroke="#FFFFFF" stroke-miterlimit="10" d="M304.914,96.484c164.53,0,297.911,133.38,297.911,297.91
	c0,164.534-133.381,297.911-297.911,297.911c-164.531,0-297.911-133.377-297.911-297.91
	C7.003,229.864,140.383,96.484,304.914,96.484z M532.857,257.802L532.857,257.802L532.857,257.802
	C530.978,257.802,530.978,257.802,532.857,257.802c-1.88,0-1.88,0-1.88,0l0,0l0,0H83.48c-7.521,0-11.281,3.76-11.281,11.281v253.833
	v1.881c0,0,0,0,0,1.88c0,0,0,0,0,1.88c0,1.881,0,0,0,1.881l0,0c0,1.879,1.88,1.879,3.76,3.76l0,0c0,0,0,0,1.881,0c0,0,0,0,1.88,0
	c0,0,0,0,1.88,0h1.88h447.498l0,0h1.88c0,0,0,0,1.881,0c1.879,0,0,0,1.879,0c1.881,0,0,0,1.881,0l0,0c1.881,0,1.881-1.881,3.76-3.76
	l0,0c0,0,0,0,0-1.881c0,0,0,0,0-1.88c0,0,0,0,0-1.88v-1.881V269.083l0,0c0,0,0,0,0-1.88c0,0,0,0,0-1.88c0,0,0,0,0-1.88s0,0,0-1.88
	l0,0c0,0,0,0,0-1.88l0,0l0,0l0,0l0,0l0,0l0,0C534.738,259.682,534.738,257.802,532.857,257.802
	C534.738,257.802,532.857,257.802,532.857,257.802L532.857,257.802z M499.013,278.485L499.013,278.485l-114.694,92.132
	c-1.881,0-1.881,1.88-3.762,1.88c0,0,0,0-1.879,1.88l-77.09,62.048l0,0l-73.329-60.168l0,0l-1.88-1.88l-114.695-94.012l0,0h387.329
	V278.485z M92.881,314.209v-20.682l110.935,92.131L92.881,496.593V314.209z M504.654,511.635H109.804l0,0L222.618,398.82
	l75.21,62.049l0,0c0,0,0,0,1.88,0l0,0h1.88l0,0h1.88l0,0h1.88l0,0h1.88l0,0h1.881l0,0l78.97-63.93l0,0L504.654,511.635
	L504.654,511.635z M519.696,496.593L405.002,381.898l114.694-92.131V496.593z"/>
</svg>
