<?xml version="1.0" encoding="utf-8"?>
<!-- Generator: Adobe Illustrator 16.2.1, SVG Export Plug-In . SVG Version: 6.00 Build 0)  -->
<!DOCTYPE svg PUBLIC "-//W3C//DTD SVG 1.1//EN" "http://www.w3.org/Graphics/SVG/1.1/DTD/svg11.dtd">
<svg version="1.1" id="Layer_1" xmlns="http://www.w3.org/2000/svg" xmlns:xlink="http://www.w3.org/1999/xlink" x="0px" y="0px"
	 width="612px" height="792px" viewBox="0 0 612 792" enable-background="new 0 0 612 792" xml:space="preserve">
<path fill="#FFFFFF" stroke="#FFFFFF" stroke-miterlimit="10" d="M305.914,98.484c164.53,0,297.911,133.38,297.911,297.91
	c0,164.534-133.381,297.911-297.911,297.911c-164.531,0-297.911-133.377-297.911-297.911
	C8.003,231.864,141.383,98.484,305.914,98.484z M395.413,182.621h-171.92c-20.888,0-38.562,17.674-38.562,38.562v348.654
	c0,20.891,17.675,38.562,38.562,38.562h171.92c20.887,0,38.56-17.672,38.56-38.562V221.182
	C432.364,200.294,416.3,182.621,395.413,182.621z M393.808,587.512H226.706c-11.247,0-20.889-9.639-20.889-20.887V221.182
	c0-11.247,9.642-20.888,20.889-20.888h167.102c11.244,0,20.884,9.641,20.884,20.888V565.02l0,0
	C414.694,577.873,405.052,587.512,393.808,587.512z M310.256,548.951c7.101,0,12.854,5.754,12.854,12.854
	c0,7.098-5.754,12.852-12.854,12.852c-7.097,0-12.852-5.754-12.852-12.852C297.404,554.705,303.159,548.951,310.256,548.951z
	 M287.764,234.036h19.281h6.427l0,0h3.216h12.85h1.609c4.819,0,8.033-4.821,8.033-9.64c0-4.819-4.819-9.64-9.643-9.64l0,0h-12.85
	h-3.216l0,0h-6.427h-17.676h-1.605c-4.82,0-8.033,4.82-8.033,9.64C279.73,229.214,282.943,234.036,287.764,234.036z
	 M398.625,269.382c-1.605-11.247-9.639-19.279-19.278-20.885c-3.214,0-6.428,0-6.428,0H249.204c-3.215,0-6.427,0-8.032,0
	c-12.854,1.605-20.889,12.853-20.889,24.1v242.614c0,12.854,11.247,24.104,24.1,24.104h131.752c12.854,0,22.492-9.645,24.103-20.891
	c0-1.605,0-1.605,0-3.211c0-1.607,0-1.607,0-1.607V275.809c0-1.607,0-1.607,0-3.215
	C398.625,270.992,398.625,270.992,398.625,269.382z M379.344,508.783c0,0,0,1.605,0,3.213c0,3.215-3.213,6.426-6.427,6.426h-126.93
	c-3.212,0-8.032-3.211-8.032-8.033V277.417c0-3.214,3.213-6.426,8.032-8.035h123.717h3.213c3.216,0,4.819,3.215,6.427,6.429V508.783
	L379.344,508.783z"/>
</svg>
