<?xml version="1.0" encoding="utf-8"?>
<!-- Generator: Adobe Illustrator 16.2.1, SVG Export Plug-In . SVG Version: 6.00 Build 0)  -->
<!DOCTYPE svg PUBLIC "-//W3C//DTD SVG 1.1//EN" "http://www.w3.org/Graphics/SVG/1.1/DTD/svg11.dtd">
<svg version="1.1" id="Layer_1" xmlns="http://www.w3.org/2000/svg" xmlns:xlink="http://www.w3.org/1999/xlink" x="0px" y="0px"
	 width="612px" height="792px" viewBox="0 0 612 792" enable-background="new 0 0 612 792" xml:space="preserve">
<path fill="#FFFFFF" d="M345.869,300.96h-76.75c-9.325,0-17.215,7.89-17.215,17.215v155.649c0,9.326,7.89,17.215,17.215,17.215
	h76.75c9.324,0,17.214-7.889,17.214-17.215V318.175C362.365,308.85,355.193,300.96,345.869,300.96z M345.152,481.715h-74.599
	c-5.021,0-9.325-4.303-9.325-9.324V318.175c0-5.021,4.304-9.325,9.325-9.325h74.599c5.02,0,9.324,4.304,9.324,9.325v153.499l0,0
	C354.477,477.412,350.172,481.715,345.152,481.715z"/>
<ellipse fill="#FFFFFF" cx="307.853" cy="470.238" rx="5.738" ry="5.738"/>
<path fill="#FFFFFF" d="M297.811,323.913h8.608h2.869l0,0h1.436h5.736h0.719c2.151,0,3.586-2.152,3.586-4.303
	c0-2.152-2.152-4.304-4.305-4.304l0,0h-5.736h-1.436l0,0h-2.869h-7.891h-0.717c-2.152,0-3.586,2.152-3.586,4.304
	C294.225,321.761,295.659,323.913,297.811,323.913z"/>
<path fill="#FFFFFF" d="M347.303,339.693c-0.717-5.021-4.303-8.607-8.607-9.324c-1.434,0-2.869,0-2.869,0h-55.23
	c-1.435,0-2.869,0-3.586,0c-5.738,0.717-9.325,5.738-9.325,10.759v108.31c0,5.738,5.021,10.76,10.759,10.76h58.818
	c5.738,0,10.041-4.305,10.759-9.326c0-0.717,0-0.717,0-1.434s0-0.717,0-0.717V342.562c0-0.718,0-0.718,0-1.435
	C347.303,340.411,347.303,340.411,347.303,339.693z M338.695,446.568c0,0,0,0.717,0,1.435c0,1.435-1.434,2.868-2.869,2.868h-56.665
	c-1.434,0-3.586-1.434-3.586-3.586V343.28c0-1.435,1.435-2.869,3.586-3.587h55.231h1.434c1.436,0,2.152,1.435,2.869,2.87V446.568z"
	/>
<circle fill="none" stroke="#FFFFFF" stroke-miterlimit="10" cx="305.914" cy="396.395" r="132.996"/>
</svg>
